<svg width="46" height="46" viewBox="0 0 46 46" fill="none" xmlns="http://www.w3.org/2000/svg">
<g filter="url(#filter0_d_0_1227)">
<ellipse cx="23" cy="19" rx="19" ry="19" fill="#4F2EE8"/>
<path d="M20.25 10.75H25.75M14.75 13.5H31.25M29.4167 13.5L28.7738 23.1427C28.6774 24.5894 28.6291 25.3128 28.3167 25.8613C28.0416 26.3441 27.6266 26.7323 27.1265 26.9747C26.5585 27.25 25.8335 27.25 24.3836 27.25H21.6164C20.1665 27.25 19.4415 27.25 18.8735 26.9747C18.3734 26.7323 17.9584 26.3441 17.6833 25.8613C17.3709 25.3128 17.3226 24.5894 17.2262 23.1427L16.5833 13.5M21.1667 17.625V22.2083M24.8333 17.625V22.2083" stroke="white" stroke-width="2" stroke-linecap="round" stroke-linejoin="round"/>
</g>
<defs>
<filter id="filter0_d_0_1227" x="0" y="0" width="46" height="46.0001" filterUnits="userSpaceOnUse" color-interpolation-filters="sRGB">
<feFlood flood-opacity="0" result="BackgroundImageFix"/>
<feColorMatrix in="SourceAlpha" type="matrix" values="0 0 0 0 0 0 0 0 0 0 0 0 0 0 0 0 0 0 127 0" result="hardAlpha"/>
<feOffset dy="4"/>
<feGaussianBlur stdDeviation="2"/>
<feComposite in2="hardAlpha" operator="out"/>
<feColorMatrix type="matrix" values="0 0 0 0 0 0 0 0 0 0 0 0 0 0 0 0 0 0 0.25 0"/>
<feBlend mode="normal" in2="BackgroundImageFix" result="effect1_dropShadow_0_1227"/>
<feBlend mode="normal" in="SourceGraphic" in2="effect1_dropShadow_0_1227" result="shape"/>
</filter>
</defs>
</svg>
