<?xml version="1.0" standalone="no"?>
<!DOCTYPE svg PUBLIC "-//W3C//DTD SVG 20010904//EN"
 "http://www.w3.org/TR/2001/REC-SVG-20010904/DTD/svg10.dtd">
<svg version="1.0" xmlns="http://www.w3.org/2000/svg"
 width="16.000000pt" height="16.000000pt" viewBox="0 0 16.000000 16.000000"
 preserveAspectRatio="xMidYMid meet">

<g transform="translate(0.000000,16.000000) scale(0.100000,-0.100000)"
fill="#000000" stroke="none">
<path d="M125 150 c-3 -5 1 -10 9 -10 8 0 18 5 21 10 3 6 -1 10 -9 10 -8 0
-18 -4 -21 -10z"/>
<path d="M91 114 c0 -11 3 -14 6 -6 3 7 2 16 -1 19 -3 4 -6 -2 -5 -13z"/>
<path d="M151 114 c0 -11 3 -14 6 -6 3 7 2 16 -1 19 -3 4 -6 -2 -5 -13z"/>
<path d="M4 108 c-4 -6 0 -16 9 -23 14 -10 14 -15 2 -39 -8 -16 -12 -32 -9
-37 3 -5 32 -9 65 -9 50 0 59 3 59 18 0 13 -2 14 -9 4 -9 -16 -106 -13 -106 3
0 6 30 11 68 13 63 3 67 4 67 27 0 23 -4 24 -67 27 -48 2 -67 7 -65 16 3 15
-5 16 -14 0z m130 -41 c-5 -14 -77 -22 -94 -12 -21 13 3 25 50 25 37 0 48 -3
44 -13z"/>
</g>
</svg>