<svg width="52" height="22" viewBox="0 0 52 22" fill="none" xmlns="http://www.w3.org/2000/svg">
<g filter="url(#filter0_d_54_492)">
<path d="M4.332 13V0.399999H5.844V5.962H12.378V0.399999H13.89V13H12.378V7.204H5.844V13H4.332ZM19.8068 13.216C18.9668 13.216 18.2108 13.024 17.5388 12.64C16.8668 12.256 16.3328 11.716 15.9368 11.02C15.5528 10.312 15.3608 9.484 15.3608 8.536C15.3608 7.588 15.5588 6.766 15.9548 6.07C16.3508 5.362 16.8848 4.816 17.5568 4.432C18.2408 4.048 19.0028 3.856 19.8428 3.856C20.6828 3.856 21.4388 4.048 22.1108 4.432C22.7828 4.816 23.3108 5.362 23.6948 6.07C24.0908 6.766 24.2888 7.588 24.2888 8.536C24.2888 9.484 24.0908 10.312 23.6948 11.02C23.2988 11.716 22.7588 12.256 22.0748 12.64C21.4028 13.024 20.6468 13.216 19.8068 13.216ZM19.8068 11.92C20.3228 11.92 20.8028 11.794 21.2468 11.542C21.6908 11.29 22.0508 10.912 22.3268 10.408C22.6028 9.904 22.7408 9.28 22.7408 8.536C22.7408 7.792 22.6028 7.168 22.3268 6.664C22.0628 6.16 21.7088 5.782 21.2648 5.53C20.8208 5.278 20.3468 5.152 19.8428 5.152C19.3268 5.152 18.8468 5.278 18.4028 5.53C17.9588 5.782 17.5988 6.16 17.3228 6.664C17.0468 7.168 16.9088 7.792 16.9088 8.536C16.9088 9.28 17.0468 9.904 17.3228 10.408C17.5988 10.912 17.9528 11.29 18.3848 11.542C18.8288 11.794 19.3028 11.92 19.8068 11.92ZM27.7881 13L24.4041 4.072H25.9881L28.6701 11.542L31.3701 4.072H32.9181L29.5341 13H27.7881ZM37.4378 13.216C36.5858 13.216 35.8298 13.024 35.1698 12.64C34.5098 12.244 33.9878 11.698 33.6038 11.002C33.2318 10.306 33.0458 9.484 33.0458 8.536C33.0458 7.6 33.2318 6.784 33.6038 6.088C33.9758 5.38 34.4918 4.834 35.1518 4.45C35.8238 4.054 36.5978 3.856 37.4738 3.856C38.3378 3.856 39.0818 4.054 39.7058 4.45C40.3418 4.834 40.8278 5.344 41.1638 5.98C41.4998 6.616 41.6678 7.3 41.6678 8.032C41.6678 8.164 41.6618 8.296 41.6498 8.428C41.6498 8.56 41.6498 8.71 41.6498 8.878H34.5398C34.5758 9.562 34.7318 10.132 35.0078 10.588C35.2958 11.032 35.6498 11.368 36.0698 11.596C36.5018 11.824 36.9578 11.938 37.4378 11.938C38.0618 11.938 38.5838 11.794 39.0038 11.506C39.4238 11.218 39.7298 10.828 39.9218 10.336H41.4158C41.1758 11.164 40.7138 11.854 40.0298 12.406C39.3578 12.946 38.4938 13.216 37.4378 13.216ZM37.4378 5.134C36.7178 5.134 36.0758 5.356 35.5118 5.8C34.9598 6.232 34.6418 6.868 34.5578 7.708H40.1738C40.1378 6.904 39.8618 6.274 39.3458 5.818C38.8298 5.362 38.1938 5.134 37.4378 5.134ZM42.9518 13V4.072H44.3198L44.4458 5.782C44.7218 5.194 45.1418 4.726 45.7058 4.378C46.2698 4.03 46.9658 3.856 47.7938 3.856V5.44H47.3798C46.8518 5.44 46.3658 5.536 45.9218 5.728C45.4778 5.908 45.1238 6.22 44.8598 6.664C44.5958 7.108 44.4638 7.72 44.4638 8.5V13H42.9518Z" fill="#9A9A9A"/>
</g>
<defs>
<filter id="filter0_d_54_492" x="0.332031" y="0.400024" width="51.4619" height="20.816" filterUnits="userSpaceOnUse" color-interpolation-filters="sRGB">
<feFlood flood-opacity="0" result="BackgroundImageFix"/>
<feColorMatrix in="SourceAlpha" type="matrix" values="0 0 0 0 0 0 0 0 0 0 0 0 0 0 0 0 0 0 127 0" result="hardAlpha"/>
<feOffset dy="4"/>
<feGaussianBlur stdDeviation="2"/>
<feComposite in2="hardAlpha" operator="out"/>
<feColorMatrix type="matrix" values="0 0 0 0 0 0 0 0 0 0 0 0 0 0 0 0 0 0 0.25 0"/>
<feBlend mode="normal" in2="BackgroundImageFix" result="effect1_dropShadow_54_492"/>
<feBlend mode="normal" in="SourceGraphic" in2="effect1_dropShadow_54_492" result="shape"/>
</filter>
</defs>
</svg>
