<svg xmlns="http://www.w3.org/2000/svg" aria-hidden="true" style="position:absolute;width:0;height:0;overflow:hidden">
  <defs>
    <symbol id="icon-trash" viewBox="0 0 32 32">
      <path d="M29.98 6.819A2.99 2.99 0 0 0 27 4.003h-3V3.001a3 3 0 0 0-3-3H11a3 3 0 0 0-3 3v1.001H5a2.99 2.99 0 0 0-2.981 2.816H2v2.183a2 2 0 0 0 2 2v17a4 4 0 0 0 4 4h16a4 4 0 0 0 4-4v-17a2 2 0 0 0 2-2V6.819h-.02zM10 3.002a1 1 0 0 1 1-1h10a1 1 0 0 1 1 1v1H10v-1zm16 25c0 1.102-.898 2-2 2H8c-1.103 0-2-.898-2-2v-17h20v17zm2-20.001v1H4V7.002a1 1 0 0 1 1-1h22a1 1 0 0 1 1 1v.999zM9 28.006h2a1 1 0 0 0 1-1v-13a1 1 0 0 0-1-1H9a1 1 0 0 0-1 1v13a1 1 0 0 0 1 1zm0-14.001h2v13H9v-13zm6 14.001h2a1 1 0 0 0 1-1v-13a1 1 0 0 0-1-1h-2a1 1 0 0 0-1 1v13a1 1 0 0 0 1 1zm0-14.001h2v13h-2v-13zm6 14.001h2a1 1 0 0 0 1-1v-13a1 1 0 0 0-1-1h-2a1 1 0 0 0-1 1v13a1 1 0 0 0 1 1zm0-14.001h2v13h-2v-13z"/>
    </symbol>
    <symbol id="icon-align-left1" viewBox="0 0 32 32">
      <path stroke-linecap="round" stroke-linejoin="round" stroke-width="2.286" d="M22.667 13.333H4M28 8H4M28 18.667H4M22.667 24H4"/>
    </symbol>
    <symbol id="icon-align-left2" viewBox="0 0 32 32">
      <path stroke-linecap="round" stroke-linejoin="round" stroke-width="2.286" d="M22.667 13.333H4M28 8H4M28 18.667H4M22.667 24H4"/>
    </symbol>
    <symbol id="icon-Hover" viewBox="0 0 76 32">
      <path d="M6.301 18.909V.582H8.5v8.09h9.504V.582h2.199v18.327h-2.199v-8.431H8.5v8.431H6.301zm22.509.314c-1.222 0-2.321-.279-3.299-.838s-1.754-1.344-2.33-2.356c-.559-1.03-.838-2.234-.838-3.613s.288-2.575.864-3.587c.576-1.03 1.353-1.824 2.33-2.383.995-.559 2.103-.838 3.325-.838s2.321.279 3.299.838c.977.559 1.745 1.353 2.304 2.383.576 1.012.864 2.208.864 3.587s-.288 2.583-.864 3.613a6.11 6.11 0 0 1-2.356 2.356c-.977.559-2.077.838-3.299.838zm0-1.885c.751 0 1.449-.183 2.095-.55s1.169-.916 1.571-1.649c.401-.733.602-1.641.602-2.723s-.201-1.99-.602-2.723c-.384-.733-.899-1.283-1.545-1.649s-1.335-.55-2.068-.55c-.751 0-1.449.183-2.095.55s-1.169.916-1.571 1.649c-.401.733-.602 1.641-.602 2.723s.201 1.99.602 2.723c.401.733.916 1.283 1.545 1.649.646.367 1.335.55 2.068.55zm11.609 1.571L35.497 5.923h2.304l3.901 10.865 3.927-10.865h2.252l-4.922 12.986h-2.54zm14.036.314c-1.239 0-2.339-.279-3.299-.838a6.232 6.232 0 0 1-2.278-2.383c-.541-1.012-.812-2.208-.812-3.587 0-1.361.271-2.548.812-3.561.541-1.03 1.292-1.824 2.252-2.383.977-.576 2.103-.864 3.377-.864 1.257 0 2.339.288 3.247.864.925.559 1.632 1.3 2.121 2.225s.733 1.92.733 2.985c0 .192-.009.384-.026.576v.655H50.24c.052.995.279 1.824.681 2.487.419.646.934 1.135 1.545 1.466a4.2 4.2 0 0 0 1.99.497c.908 0 1.667-.209 2.278-.628s1.056-.986 1.335-1.702h2.173a5.902 5.902 0 0 1-2.016 3.011c-.977.785-2.234 1.178-3.77 1.178zm0-11.755a4.405 4.405 0 0 0-2.801.969c-.803.628-1.265 1.553-1.388 2.775h8.169c-.052-1.169-.454-2.086-1.204-2.749s-1.676-.995-2.775-.995zm8.02 11.441V5.923h1.99l.183 2.487c.401-.855 1.012-1.536 1.833-2.042s1.833-.759 3.037-.759v2.304h-.602c-.768 0-1.475.14-2.121.419-.646.262-1.161.716-1.545 1.361s-.576 1.536-.576 2.671v6.545h-2.199z"/>
    </symbol>
    <symbol id="icon-lock-02" viewBox="0 0 32 32">
      <path stroke-linecap="round" stroke-linejoin="round" stroke-width="2.286" d="M22.667 14.667v-4a6.667 6.667 0 0 0-13.334 0v4M10.4 28h11.2c2.24 0 3.36 0 4.216-.436a3.991 3.991 0 0 0 1.748-1.748C28 24.96 28 23.84 28 21.6v-.533c0-2.24 0-3.36-.436-4.216a3.991 3.991 0 0 0-1.748-1.748c-.856-.436-1.976-.436-4.216-.436H10.4c-2.24 0-3.36 0-4.216.436a3.996 3.996 0 0 0-1.748 1.748C4 17.707 4 18.827 4 21.067v.533c0 2.24 0 3.36.436 4.216a3.991 3.991 0 0 0 1.748 1.748C7.04 28 8.16 28 10.4 28z"/>
    </symbol>
    <symbol id="icon-mail-02" viewBox="0 0 33 32">
      <path stroke-linecap="round" stroke-linejoin="round" stroke-width="1.939" d="m27.232 20.364-7.515-6.788m-6.465 0-7.515 6.788M5.172 7.919l9.237 6.466c.748.524 1.122.785 1.529.887.359.09.735.09 1.095 0 .407-.101.781-.363 1.529-.887l9.237-6.466M10.602 22.626h11.766c1.901 0 2.851 0 3.577-.37a3.39 3.39 0 0 0 1.483-1.483c.37-.726.37-1.676.37-3.577v-7.24c0-1.901 0-2.851-.37-3.577a3.39 3.39 0 0 0-1.483-1.483c-.726-.37-1.676-.37-3.577-.37H10.602c-1.901 0-2.851 0-3.577.37a3.39 3.39 0 0 0-1.483 1.483c-.37.726-.37 1.676-.37 3.577v7.24c0 1.901 0 2.851.37 3.577a3.39 3.39 0 0 0 1.483 1.483c.726.37 1.676.37 3.577.37z"/>
    </symbol>
    <symbol id="icon-user" viewBox="0 0 32 32">
      <path d="M32 16c0 8.837-7.163 16-16 16S0 24.837 0 16 7.163 0 16 0s16 7.163 16 16z"/>
      <path d="M10.523 22.847a5.477 5.477 0 1 1 10.954 0H10.522zM16 16.685c-2.27 0-4.108-1.838-4.108-4.108S13.73 8.469 16 8.469c2.27 0 4.108 1.838 4.108 4.108S18.27 16.685 16 16.685z"/>
    </symbol>
    <symbol id="icon-x-close1" viewBox="0 0 32 32">
      <path stroke-linecap="round" stroke-linejoin="round" stroke-width="3.429" d="M24 8 8 24M8 8l16 16"/>
    </symbol>
    <symbol id="icon-x-close2" viewBox="0 0 32 32">
      <path stroke-linecap="round" stroke-linejoin="round" stroke-width="3.429" d="M24 8 8 24M8 8l16 16"/>
    </symbol>
  </defs>
</svg>
