<svg xmlns="http://www.w3.org/2000/svg" aria-hidden="true" style="position:absolute;width:0;height:0;overflow:hidden">
  <defs>
    <symbol id="icon-book-open" viewBox="0 0 35 32">
      <path fill="#4f2ee8" d="M34.352 7.713A16.665 16.665 0 0 0 32 6.712v19.742a16.089 16.089 0 0 0-5.6-1.017c-3.04 0-6.048.886-8.8 2.593V8.174c-2.592-1.526-5.584-2.429-8.8-2.429-2.864 0-5.568.722-7.952 1.969C.32 7.977 0 8.551 0 9.158v19.824a1.6 1.6 0 0 0 1.6 1.625c.256 0 .512-.066.768-.197 1.936-1.034 4.112-1.69 6.432-1.69 3.312 0 6.368 1.346 8.8 3.282 2.432-1.936 5.488-3.282 8.8-3.282 2.32 0 4.496.656 6.432 1.707.256.131.512.197.768.197.832 0 1.6-.673 1.6-1.625V9.159c0-.607-.32-1.182-.848-1.444zM14.4 26.453c-1.824-.673-3.696-1.017-5.6-1.017s-3.776.345-5.6 1.017V10.19a13.941 13.941 0 0 1 5.6-1.165c1.92 0 3.824.41 5.6 1.182v16.246zM28.8 0l-8 8.205v15.59l8-7.385V0z" style="fill:var(--color1, #4f2ee8)"/>
    </symbol>
    <symbol id="icon-Bookshelf" viewBox="0 0 176 32">
      <path d="M22.176 8.533c0-4.731-3.497-7.406-9.545-7.406H0v29.417h13.33c6.089 0 9.998-2.921 9.998-8.599 0-4.402-2.633-6.665-5.719-7.2v-.082c2.427-.823 4.567-2.51 4.567-6.13zm-17.28 4.772V5.282h7.858c2.921 0 4.526 1.44 4.526 4.032s-1.317 3.991-4.814 3.991h-7.57zm0 3.662h8.599c3.086 0 4.937 1.687 4.937 4.69 0 2.757-1.275 4.731-5.472 4.731H4.896v-9.422zM35.89 31.161c-6.583 0-10.574-4.567-10.574-11.109S29.307 8.943 35.89 8.943s10.574 4.567 10.574 11.109-3.991 11.109-10.574 11.109zm0-3.538c4.114 0 6.254-3.25 6.254-7.57 0-4.361-2.139-7.57-6.254-7.57s-6.254 3.209-6.254 7.57c0 4.32 2.139 7.57 6.254 7.57zM58.912 31.161c-6.583 0-10.574-4.567-10.574-11.109S52.329 8.943 58.912 8.943s10.574 4.567 10.574 11.109-3.991 11.109-10.574 11.109zm0-3.538c4.114 0 6.254-3.25 6.254-7.57 0-4.361-2.139-7.57-6.254-7.57s-6.254 3.209-6.254 7.57c0 4.32 2.139 7.57 6.254 7.57zM72.472 1.127v29.417h4.32v-7.611l2.921-2.757 6.624 10.368h5.184l-8.846-13.207 7.982-7.817H85.35l-8.558 8.434V1.127h-4.32zM101.935 17.831c-3.045-.699-5.39-.864-5.39-3.003 0-1.481 1.399-2.469 3.991-2.469 3.374 0 4.197 1.687 4.485 3.333h4.197c-.288-3.662-3.003-6.747-8.722-6.747-5.266 0-8.311 2.757-8.311 6.213 0 4.773 4.526 5.431 7.858 6.213 3.086.741 5.595.946 5.595 3.579 0 1.317-1.275 2.798-4.279 2.798-4.443 0-5.431-1.934-5.637-4.197h-4.197c.206 4.443 3.127 7.611 9.915 7.611 5.102 0 8.558-2.51 8.558-6.542 0-5.019-4.197-5.883-8.064-6.789zM124.123 8.944c-3.538 0-5.719 1.646-6.83 3.291h-.082V1.126h-4.32v29.417h4.32V17.748c0-3.127 2.263-5.143 5.431-5.143 3.003 0 4.197 1.81 4.197 4.649v13.289h4.361V16.02c0-4.814-3.086-7.077-7.077-7.077zM144.448 27.623c-3.826 0-6.089-2.921-6.089-6.459h16.128c0-7.488-3.333-12.219-10.121-12.219-6.336 0-10.327 4.279-10.327 11.109 0 6.583 3.991 11.109 10.533 11.109 5.39 0 8.517-3.045 9.586-7.035h-4.32c-.37 1.275-1.81 3.497-5.39 3.497zm-.082-15.264c3.497 0 5.801 2.345 5.801 5.595h-11.808c0-3.25 2.51-5.595 6.007-5.595zM157.531 1.127v29.417h4.361V1.127h-4.361zM176.003 4.665V1.127a15.12 15.12 0 0 0-2.88-.288c-3.456 0-5.349 1.563-5.349 6.007V9.52h-3.003v3.538h3.003v17.486h4.361V13.058h3.867V9.52h-3.867V7.216c0-2.386 1.07-2.674 3.867-2.551z"/>
    </symbol>
    <symbol id="icon-Home" viewBox="0 0 113 32">
      <path d="M2.769 29.091V.582h5.213v11.852H20.77V.582h5.213v28.509H20.77V16.669H7.982v12.422H2.769zm40.486.489c-2.851 0-5.349-.625-7.494-1.873-2.118-1.249-3.788-2.973-5.009-5.172-1.195-2.226-1.792-4.792-1.792-7.697s.597-5.457 1.792-7.657c1.222-2.226 2.892-3.964 5.009-5.213C37.906.719 40.404.095 43.255.095c2.824 0 5.308.625 7.453 1.873s3.815 2.987 5.009 5.213c1.194 2.199 1.792 4.752 1.792 7.657s-.598 5.471-1.792 7.697c-1.195 2.199-2.865 3.923-5.009 5.172s-4.63 1.873-7.453 1.873zm0-4.684c2.715 0 4.874-.896 6.476-2.688 1.629-1.792 2.444-4.249 2.444-7.372s-.815-5.58-2.444-7.372c-1.602-1.792-3.761-2.688-6.476-2.688s-4.887.896-6.516 2.688-2.444 4.249-2.444 7.372c0 3.122.815 5.58 2.444 7.372s3.801 2.688 6.516 2.688zm17.228 4.195V.582h6.191l9.082 18.083L84.716.582h6.191v28.509h-5.213V9.42l-7.942 15.599h-4.113L65.697 9.42v19.671h-5.213zm34.325 0V.582h18.612v4.195h-13.399v7.82h12.177v4.073h-12.177v8.227h13.399v4.195H94.808z"/>
    </symbol>
    <symbol id="icon-logo-full-black" viewBox="0 0 125 32">
      <path fill="#f6f6f6" d="m0 2.286 14.008 13.861 13.42 13.567V2.285H-.001z" style="fill:var(--color2, #f6f6f6)"/>
      <path fill="#f6f6f6" d="m3.82 5.91 10.237 10.139 9.649 9.845H3.82V5.91z" style="fill:var(--color2, #f6f6f6)"/>
      <path fill="#4f2ee8" d="M23.771 25.959 13.534 15.82 3.885 5.975h19.886v19.984z" style="fill:var(--color1, #4f2ee8)"/>
      <path fill="#4f2ee8" d="m7.935 10.024 11.657 11.657H7.935V10.024z" style="fill:var(--color1, #4f2ee8)"/>
      <path fill="#f6f6f6" d="m7.935 10.024 11.657 11.657V10.024H7.935z" style="fill:var(--color2, #f6f6f6)"/>
      <path fill="#f3f3f3" d="M47.659 12.266c0-2.366-1.749-3.703-4.773-3.703h-6.315v14.709h6.665c3.045 0 4.999-1.461 4.999-4.299 0-2.201-1.317-3.333-2.859-3.6v-.041c1.214-.411 2.283-1.255 2.283-3.065zm-8.64 2.387v-4.011h3.929c1.461 0 2.263.72 2.263 2.016s-.658 1.995-2.407 1.995h-3.785zm0 1.83h4.299c1.543 0 2.469.843 2.469 2.345 0 1.378-.638 2.366-2.736 2.366h-4.032v-4.711zM54.516 23.581c-3.291 0-5.287-2.283-5.287-5.554s1.995-5.554 5.287-5.554c3.291 0 5.287 2.283 5.287 5.554s-1.995 5.554-5.287 5.554zm0-1.77c2.057 0 3.127-1.625 3.127-3.785 0-2.181-1.07-3.785-3.127-3.785s-3.127 1.605-3.127 3.785c0 2.16 1.07 3.785 3.127 3.785zM66.027 23.581c-3.291 0-5.287-2.283-5.287-5.554s1.995-5.554 5.287-5.554c3.291 0 5.287 2.283 5.287 5.554s-1.995 5.554-5.287 5.554zm0-1.77c2.057 0 3.127-1.625 3.127-3.785 0-2.181-1.07-3.785-3.127-3.785S62.9 15.846 62.9 18.026c0 2.16 1.07 3.785 3.127 3.785zM72.807 8.563v14.709h2.16v-3.806l1.461-1.378 3.312 5.184h2.592l-4.423-6.603L81.9 12.76h-2.654l-4.279 4.217V8.563h-2.16zM87.539 16.915c-1.522-.35-2.695-.432-2.695-1.502 0-.741.699-1.234 1.995-1.234 1.687 0 2.098.843 2.242 1.666h2.098c-.144-1.831-1.502-3.374-4.361-3.374-2.633 0-4.155 1.378-4.155 3.106 0 2.386 2.263 2.715 3.929 3.106 1.543.37 2.798.473 2.798 1.79 0 .658-.638 1.399-2.139 1.399-2.222 0-2.715-.967-2.818-2.098h-2.098c.103 2.222 1.563 3.806 4.958 3.806 2.551 0 4.279-1.255 4.279-3.271 0-2.51-2.098-2.942-4.032-3.394zM98.633 12.472c-1.769 0-2.859.823-3.415 1.646h-.041V8.564h-2.16v14.709h2.16v-6.398c0-1.563 1.131-2.571 2.715-2.571 1.502 0 2.098.905 2.098 2.325v6.645h2.181v-7.262c0-2.407-1.543-3.538-3.538-3.538zM108.796 21.811c-1.913 0-3.045-1.461-3.045-3.23h8.064c0-3.744-1.666-6.11-5.061-6.11-3.168 0-5.163 2.139-5.163 5.554 0 3.291 1.995 5.554 5.266 5.554 2.695 0 4.258-1.522 4.793-3.518h-2.16c-.185.638-.905 1.749-2.695 1.749zm-.042-7.632c1.749 0 2.901 1.173 2.901 2.798h-5.904c0-1.625 1.255-2.798 3.003-2.798zM115.337 8.563v14.709h2.181V8.563h-2.181zM124.573 10.333V8.564a7.6 7.6 0 0 0-1.44-.144c-1.728 0-2.674.782-2.674 3.003v1.337h-1.502v1.769h1.502v8.743h2.181v-8.743h1.934V12.76h-1.934v-1.152c0-1.193.535-1.337 1.934-1.275z" style="fill:var(--color3, #f3f3f3)"/>
    </symbol>
    <symbol id="icon-logo-full-white" viewBox="0 0 125 32">
      <path fill="#f6f6f6" d="m0 2.286 14.008 13.861 13.42 13.567V2.285H-.001z" style="fill:var(--color2, #f6f6f6)"/>
      <path fill="#f6f6f6" d="m3.82 5.91 10.237 10.139 9.649 9.845H3.82V5.91z" style="fill:var(--color2, #f6f6f6)"/>
      <path fill="#4f2ee8" d="M23.771 25.959 13.534 15.82 3.885 5.975h19.886v19.984z" style="fill:var(--color1, #4f2ee8)"/>
      <path fill="#4f2ee8" d="m7.935 10.024 11.657 11.657H7.935V10.024z" style="fill:var(--color1, #4f2ee8)"/>
      <path fill="#f6f6f6" d="m7.935 10.024 11.657 11.657V10.024H7.935z" style="fill:var(--color2, #f6f6f6)"/>
      <path d="M47.659 12.266c0-2.366-1.749-3.703-4.773-3.703h-6.315v14.709h6.665c3.045 0 4.999-1.461 4.999-4.299 0-2.201-1.317-3.333-2.859-3.6v-.041c1.214-.411 2.283-1.255 2.283-3.065zm-8.64 2.387v-4.011h3.929c1.461 0 2.263.72 2.263 2.016s-.658 1.995-2.407 1.995h-3.785zm0 1.83h4.299c1.543 0 2.469.843 2.469 2.345 0 1.378-.638 2.366-2.736 2.366h-4.032v-4.711zM54.516 23.581c-3.291 0-5.287-2.283-5.287-5.554s1.995-5.554 5.287-5.554c3.291 0 5.287 2.283 5.287 5.554s-1.995 5.554-5.287 5.554zm0-1.77c2.057 0 3.127-1.625 3.127-3.785 0-2.181-1.07-3.785-3.127-3.785s-3.127 1.605-3.127 3.785c0 2.16 1.07 3.785 3.127 3.785zM66.027 23.581c-3.291 0-5.287-2.283-5.287-5.554s1.995-5.554 5.287-5.554c3.291 0 5.287 2.283 5.287 5.554s-1.995 5.554-5.287 5.554zm0-1.77c2.057 0 3.127-1.625 3.127-3.785 0-2.181-1.07-3.785-3.127-3.785S62.9 15.846 62.9 18.026c0 2.16 1.07 3.785 3.127 3.785zM72.807 8.563v14.709h2.16v-3.806l1.461-1.378 3.312 5.184h2.592l-4.423-6.603L81.9 12.76h-2.654l-4.279 4.217V8.563h-2.16zM87.539 16.915c-1.522-.35-2.695-.432-2.695-1.502 0-.741.699-1.234 1.995-1.234 1.687 0 2.098.843 2.242 1.666h2.098c-.144-1.831-1.502-3.374-4.361-3.374-2.633 0-4.155 1.378-4.155 3.106 0 2.386 2.263 2.715 3.929 3.106 1.543.37 2.798.473 2.798 1.79 0 .658-.638 1.399-2.139 1.399-2.222 0-2.715-.967-2.818-2.098h-2.098c.103 2.222 1.563 3.806 4.958 3.806 2.551 0 4.279-1.255 4.279-3.271 0-2.51-2.098-2.942-4.032-3.394zM98.633 12.472c-1.769 0-2.859.823-3.415 1.646h-.041V8.564h-2.16v14.709h2.16v-6.398c0-1.563 1.131-2.571 2.715-2.571 1.502 0 2.098.905 2.098 2.325v6.645h2.181v-7.262c0-2.407-1.543-3.538-3.538-3.538zM108.796 21.811c-1.913 0-3.045-1.461-3.045-3.23h8.064c0-3.744-1.666-6.11-5.061-6.11-3.168 0-5.163 2.139-5.163 5.554 0 3.291 1.995 5.554 5.266 5.554 2.695 0 4.258-1.522 4.793-3.518h-2.16c-.185.638-.905 1.749-2.695 1.749zm-.042-7.632c1.749 0 2.901 1.173 2.901 2.798h-5.904c0-1.625 1.255-2.798 3.003-2.798zM115.337 8.563v14.709h2.181V8.563h-2.181zM124.573 10.333V8.564a7.6 7.6 0 0 0-1.44-.144c-1.728 0-2.674.782-2.674 3.003v1.337h-1.502v1.769h1.502v8.743h2.181v-8.743h1.934V12.76h-1.934v-1.152c0-1.193.535-1.337 1.934-1.275z" style="fill:var(--color4, #000)"/>
    </symbol>
    <symbol id="icon-Shopping-list" viewBox="0 0 273 32">
      <path d="M12.3 29.58c-2.091 0-3.923-.367-5.498-1.1s-2.81-1.778-3.706-3.136c-.869-1.358-1.317-2.973-1.344-4.847h4.561c.027 1.52.557 2.81 1.588 3.869s2.484 1.588 4.358 1.588c1.656 0 2.946-.394 3.869-1.181.95-.815 1.425-1.846 1.425-3.095 0-1.005-.231-1.819-.692-2.444-.434-.625-1.045-1.14-1.833-1.548-.76-.407-1.643-.774-2.647-1.1s-2.063-.679-3.177-1.059c-2.199-.733-3.856-1.683-4.969-2.851-1.086-1.168-1.629-2.702-1.629-4.602-.027-1.602.339-3 1.1-4.195.787-1.195 1.873-2.118 3.258-2.769C8.376.431 10.019.092 11.892.092c1.846 0 3.462.339 4.847 1.018 1.412.679 2.511 1.629 3.299 2.851.787 1.195 1.195 2.593 1.222 4.195h-4.561c0-.733-.19-1.425-.57-2.077-.38-.679-.937-1.235-1.67-1.67s-1.629-.652-2.688-.652c-1.358-.027-2.484.312-3.38 1.018-.869.706-1.303 1.683-1.303 2.932 0 1.113.326 1.969.977 2.566s1.548 1.1 2.688 1.507c1.14.38 2.444.828 3.91 1.344 1.412.462 2.674 1.018 3.788 1.67s1.996 1.507 2.647 2.566c.679 1.059 1.018 2.403 1.018 4.032a7.832 7.832 0 0 1-1.1 4.032c-.733 1.222-1.833 2.226-3.299 3.014-1.466.76-3.272 1.14-5.417 1.14zm12.906-.489V.582h4.317V12.8H43.33V.582h4.317v28.509H43.33V16.343H29.523v12.748h-4.317zm39.764.489c-2.824 0-5.295-.625-7.412-1.873s-3.774-2.973-4.969-5.172c-1.195-2.226-1.792-4.792-1.792-7.697s.597-5.457 1.792-7.657c1.195-2.226 2.851-3.964 4.969-5.213S62.146.095 64.97.095s5.295.625 7.412 1.873 3.761 2.987 4.928 5.213c1.195 2.199 1.792 4.752 1.792 7.657s-.597 5.471-1.792 7.697c-1.167 2.199-2.81 3.923-4.928 5.172s-4.588 1.873-7.412 1.873zm0-3.869c1.955 0 3.652-.434 5.091-1.303 1.466-.869 2.607-2.118 3.421-3.747s1.222-3.57 1.222-5.824-.407-4.195-1.222-5.824-1.955-2.878-3.421-3.747c-1.439-.869-3.136-1.303-5.091-1.303s-3.665.434-5.132 1.303c-1.466.869-2.607 2.118-3.421 3.747-.788 1.629-1.181 3.57-1.181 5.824s.394 4.195 1.181 5.824c.815 1.629 1.955 2.878 3.421 3.747s3.177 1.303 5.132 1.303zm17.313 3.38V.582h9.978c2.226 0 4.073.38 5.539 1.14 1.466.733 2.552 1.751 3.258 3.055.733 1.276 1.1 2.729 1.1 4.358 0 1.548-.353 2.973-1.059 4.276-.679 1.276-1.751 2.294-3.217 3.055s-3.34 1.14-5.62 1.14h-5.661v11.485h-4.317zM86.6 14.063h5.457c2.036 0 3.489-.434 4.358-1.303.896-.896 1.344-2.104 1.344-3.625 0-1.575-.448-2.797-1.344-3.665-.869-.896-2.321-1.344-4.358-1.344H86.6v9.937zm18.196 15.028V.582h9.978c2.227 0 4.073.38 5.539 1.14 1.466.733 2.552 1.751 3.258 3.055.733 1.276 1.1 2.729 1.1 4.358 0 1.548-.353 2.973-1.059 4.276-.679 1.276-1.751 2.294-3.217 3.055s-3.34 1.14-5.62 1.14h-5.661v11.485h-4.317zm4.317-15.028h5.457c2.036 0 3.489-.434 4.358-1.303.896-.896 1.344-2.104 1.344-3.625 0-1.575-.448-2.797-1.344-3.665-.869-.896-2.321-1.344-4.358-1.344h-5.457v9.937zm18.196 15.028V.582h4.317v28.509h-4.317zm8.473 0V.582h4.317l14.295 21.463V.582h4.317v28.509h-4.317L140.099 7.628v21.463h-4.317zm39.468.489c-2.688 0-5.036-.611-7.046-1.833s-3.57-2.932-4.684-5.132c-1.113-2.199-1.67-4.765-1.67-7.697 0-2.905.57-5.471 1.711-7.697s2.756-3.964 4.847-5.213c2.118-1.276 4.616-1.914 7.494-1.914 3.258 0 5.973.787 8.145 2.362s3.584 3.747 4.236 6.516h-4.887c-.434-1.521-1.29-2.715-2.566-3.584s-2.919-1.303-4.928-1.303c-2.987 0-5.335.964-7.046 2.892s-2.566 4.589-2.566 7.983c0 3.394.842 6.041 2.525 7.942s3.923 2.851 6.72 2.851c2.824 0 4.942-.801 6.353-2.403 1.439-1.602 2.281-3.733 2.525-6.394h-7.738v-3.34h12.096v15.476h-3.951l-.367-4.195c-.95 1.493-2.145 2.647-3.584 3.462s-3.313 1.222-5.62 1.222zm25.764-.489V.582h4.317V25.67h12.951v3.421h-17.268zm20.285 0V.582h4.317v28.509h-4.317zm17.882.489c-2.091 0-3.923-.367-5.498-1.1s-2.81-1.778-3.706-3.136c-.869-1.358-1.317-2.973-1.344-4.847h4.561c.027 1.52.556 2.81 1.588 3.869s2.484 1.588 4.358 1.588c1.656 0 2.946-.394 3.869-1.181.95-.815 1.425-1.846 1.425-3.095 0-1.005-.231-1.819-.692-2.444-.434-.625-1.045-1.14-1.833-1.548-.76-.407-1.643-.774-2.647-1.1s-2.063-.679-3.177-1.059c-2.199-.733-3.855-1.683-4.969-2.851-1.086-1.168-1.629-2.702-1.629-4.602-.027-1.602.339-3 1.1-4.195.787-1.195 1.873-2.118 3.258-2.769C235.257.431 236.9.092 238.773.092c1.846 0 3.462.339 4.847 1.018 1.412.679 2.511 1.629 3.299 2.851.787 1.195 1.195 2.593 1.222 4.195h-4.561c0-.733-.19-1.425-.57-2.077-.38-.679-.937-1.235-1.67-1.67s-1.629-.652-2.688-.652c-1.358-.027-2.484.312-3.38 1.018-.869.706-1.303 1.683-1.303 2.932 0 1.113.326 1.969.977 2.566s1.548 1.1 2.688 1.507c1.14.38 2.444.828 3.91 1.344 1.412.462 2.674 1.018 3.788 1.67s1.996 1.507 2.647 2.566c.679 1.059 1.018 2.403 1.018 4.032a7.832 7.832 0 0 1-1.1 4.032c-.733 1.222-1.833 2.226-3.299 3.014-1.466.76-3.272 1.14-5.417 1.14zm19.068-.489V4.084h-8.431V.581h21.137v3.503h-8.39v25.007h-4.317z"/>
    </symbol>
    <symbol id="icon-uil_cart" viewBox="0 0 32 32">
      <path d="M25.333 9.333h-4V8a5.332 5.332 0 1 0-10.666 0v1.333h-4a1.335 1.335 0 0 0-1.334 1.334v14.667a4.003 4.003 0 0 0 4 4h13.333a4.003 4.003 0 0 0 4-4V10.667a1.335 1.335 0 0 0-1.334-1.334zM13.333 8a2.668 2.668 0 0 1 5.334 0v1.333h-5.333V8zM24 25.333a1.333 1.333 0 0 1-1.333 1.334H9.334A1.335 1.335 0 0 1 8 25.333V12h2.667v1.333a1.333 1.333 0 1 0 2.667 0V12h5.333v1.333a1.335 1.335 0 0 0 2.277.943c.25-.251.391-.589.391-.943V12h2.667v13.333z"/>
    </symbol>
    <symbol id="icon-book-open1" viewBox="0 0 35 32">
      <path d="M34.352 7.713A16.665 16.665 0 0 0 32 6.712v19.742a16.089 16.089 0 0 0-5.6-1.017c-3.04 0-6.048.886-8.8 2.593V8.174c-2.592-1.526-5.584-2.429-8.8-2.429-2.864 0-5.568.722-7.952 1.969C.32 7.977 0 8.551 0 9.158v19.824a1.6 1.6 0 0 0 1.6 1.625c.256 0 .512-.066.768-.197 1.936-1.034 4.112-1.69 6.432-1.69 3.312 0 6.368 1.346 8.8 3.282 2.432-1.936 5.488-3.282 8.8-3.282 2.32 0 4.496.656 6.432 1.707.256.131.512.197.768.197.832 0 1.6-.673 1.6-1.625V9.159c0-.607-.32-1.182-.848-1.444zM14.4 26.453c-1.824-.673-3.696-1.017-5.6-1.017s-3.776.345-5.6 1.017V10.19a13.941 13.941 0 0 1 5.6-1.165c1.92 0 3.824.41 5.6 1.182v16.246zM28.8 0l-8 8.205v15.59l8-7.385V0z"/>
    </symbol>
    <symbol id="icon-Bookshelf1" viewBox="0 0 176 32">
      <path d="M22.176 8.533c0-4.731-3.497-7.406-9.545-7.406H0v29.417h13.33c6.089 0 9.998-2.921 9.998-8.599 0-4.402-2.633-6.665-5.719-7.2v-.082c2.427-.823 4.567-2.51 4.567-6.13zm-17.28 4.772V5.282h7.858c2.921 0 4.526 1.44 4.526 4.032s-1.317 3.991-4.814 3.991h-7.57zm0 3.662h8.599c3.086 0 4.937 1.687 4.937 4.69 0 2.757-1.275 4.731-5.472 4.731H4.896v-9.422zM35.89 31.161c-6.583 0-10.574-4.567-10.574-11.109S29.307 8.943 35.89 8.943s10.574 4.567 10.574 11.109-3.991 11.109-10.574 11.109zm0-3.538c4.114 0 6.254-3.25 6.254-7.57 0-4.361-2.139-7.57-6.254-7.57s-6.254 3.209-6.254 7.57c0 4.32 2.139 7.57 6.254 7.57zM58.912 31.161c-6.583 0-10.574-4.567-10.574-11.109S52.329 8.943 58.912 8.943s10.574 4.567 10.574 11.109-3.991 11.109-10.574 11.109zm0-3.538c4.114 0 6.254-3.25 6.254-7.57 0-4.361-2.139-7.57-6.254-7.57s-6.254 3.209-6.254 7.57c0 4.32 2.139 7.57 6.254 7.57zM72.472 1.127v29.417h4.32v-7.611l2.921-2.757 6.624 10.368h5.184l-8.846-13.207 7.982-7.817H85.35l-8.558 8.434V1.127h-4.32zM101.935 17.831c-3.045-.699-5.39-.864-5.39-3.003 0-1.481 1.399-2.469 3.991-2.469 3.374 0 4.197 1.687 4.485 3.333h4.197c-.288-3.662-3.003-6.747-8.722-6.747-5.266 0-8.311 2.757-8.311 6.213 0 4.773 4.526 5.431 7.858 6.213 3.086.741 5.595.946 5.595 3.579 0 1.317-1.275 2.798-4.279 2.798-4.443 0-5.431-1.934-5.637-4.197h-4.197c.206 4.443 3.127 7.611 9.915 7.611 5.102 0 8.558-2.51 8.558-6.542 0-5.019-4.197-5.883-8.064-6.789zM124.123 8.944c-3.538 0-5.719 1.646-6.83 3.291h-.082V1.126h-4.32v29.417h4.32V17.748c0-3.127 2.263-5.143 5.431-5.143 3.003 0 4.197 1.81 4.197 4.649v13.289h4.361V16.02c0-4.814-3.086-7.077-7.077-7.077zM144.448 27.623c-3.826 0-6.089-2.921-6.089-6.459h16.128c0-7.488-3.333-12.219-10.121-12.219-6.336 0-10.327 4.279-10.327 11.109 0 6.583 3.991 11.109 10.533 11.109 5.39 0 8.517-3.045 9.586-7.035h-4.32c-.37 1.275-1.81 3.497-5.39 3.497zm-.082-15.264c3.497 0 5.801 2.345 5.801 5.595h-11.808c0-3.25 2.51-5.595 6.007-5.595zM157.531 1.127v29.417h4.361V1.127h-4.361zM176.003 4.665V1.127a15.12 15.12 0 0 0-2.88-.288c-3.456 0-5.349 1.563-5.349 6.007V9.52h-3.003v3.538h3.003v17.486h4.361V13.058h3.867V9.52h-3.867V7.216c0-2.386 1.07-2.674 3.867-2.551z"/>
    </symbol>
    <symbol id="icon-Home1" viewBox="0 0 113 32">
      <path d="M2.769 29.091V.582h5.213v11.852H20.77V.582h5.213v28.509H20.77V16.669H7.982v12.422H2.769zm40.486.489c-2.851 0-5.349-.625-7.494-1.873-2.118-1.249-3.788-2.973-5.009-5.172-1.195-2.226-1.792-4.792-1.792-7.697s.597-5.457 1.792-7.657c1.222-2.226 2.892-3.964 5.009-5.213C37.906.719 40.404.095 43.255.095c2.824 0 5.308.625 7.453 1.873s3.815 2.987 5.009 5.213c1.194 2.199 1.792 4.752 1.792 7.657s-.598 5.471-1.792 7.697c-1.195 2.199-2.865 3.923-5.009 5.172s-4.63 1.873-7.453 1.873zm0-4.684c2.715 0 4.874-.896 6.476-2.688 1.629-1.792 2.444-4.249 2.444-7.372s-.815-5.58-2.444-7.372c-1.602-1.792-3.761-2.688-6.476-2.688s-4.887.896-6.516 2.688-2.444 4.249-2.444 7.372c0 3.122.815 5.58 2.444 7.372s3.801 2.688 6.516 2.688zm17.228 4.195V.582h6.191l9.082 18.083L84.716.582h6.191v28.509h-5.213V9.42l-7.942 15.599h-4.113L65.697 9.42v19.671h-5.213zm34.325 0V.582h18.612v4.195h-13.399v7.82h12.177v4.073h-12.177v8.227h13.399v4.195H94.808z"/>
    </symbol>
    <symbol id="icon-logo-full-black1" viewBox="0 0 125 32">
      <path d="m0 2.286 14.008 13.861 13.42 13.567V2.285H-.001z"/>
      <path d="m3.82 5.91 10.237 10.139 9.649 9.845H3.82V5.91z"/>
      <path d="M23.771 25.959 13.534 15.82 3.885 5.975h19.886v19.984z"/>
      <path d="m7.935 10.024 11.657 11.657H7.935V10.024z"/>
      <path d="m7.935 10.024 11.657 11.657V10.024H7.935zM47.659 12.266c0-2.366-1.749-3.703-4.773-3.703h-6.315v14.709h6.665c3.045 0 4.999-1.461 4.999-4.299 0-2.201-1.317-3.333-2.859-3.6v-.041c1.214-.411 2.283-1.255 2.283-3.065zm-8.64 2.387v-4.011h3.929c1.461 0 2.263.72 2.263 2.016s-.658 1.995-2.407 1.995h-3.785zm0 1.83h4.299c1.543 0 2.469.843 2.469 2.345 0 1.378-.638 2.366-2.736 2.366h-4.032v-4.711zM54.516 23.581c-3.291 0-5.287-2.283-5.287-5.554s1.995-5.554 5.287-5.554c3.291 0 5.287 2.283 5.287 5.554s-1.995 5.554-5.287 5.554zm0-1.77c2.057 0 3.127-1.625 3.127-3.785 0-2.181-1.07-3.785-3.127-3.785s-3.127 1.605-3.127 3.785c0 2.16 1.07 3.785 3.127 3.785zM66.027 23.581c-3.291 0-5.287-2.283-5.287-5.554s1.995-5.554 5.287-5.554c3.291 0 5.287 2.283 5.287 5.554s-1.995 5.554-5.287 5.554zm0-1.77c2.057 0 3.127-1.625 3.127-3.785 0-2.181-1.07-3.785-3.127-3.785S62.9 15.846 62.9 18.026c0 2.16 1.07 3.785 3.127 3.785zM72.807 8.563v14.709h2.16v-3.806l1.461-1.378 3.312 5.184h2.592l-4.423-6.603L81.9 12.76h-2.654l-4.279 4.217V8.563h-2.16zM87.539 16.915c-1.522-.35-2.695-.432-2.695-1.502 0-.741.699-1.234 1.995-1.234 1.687 0 2.098.843 2.242 1.666h2.098c-.144-1.831-1.502-3.374-4.361-3.374-2.633 0-4.155 1.378-4.155 3.106 0 2.386 2.263 2.715 3.929 3.106 1.543.37 2.798.473 2.798 1.79 0 .658-.638 1.399-2.139 1.399-2.222 0-2.715-.967-2.818-2.098h-2.098c.103 2.222 1.563 3.806 4.958 3.806 2.551 0 4.279-1.255 4.279-3.271 0-2.51-2.098-2.942-4.032-3.394zM98.633 12.472c-1.769 0-2.859.823-3.415 1.646h-.041V8.564h-2.16v14.709h2.16v-6.398c0-1.563 1.131-2.571 2.715-2.571 1.502 0 2.098.905 2.098 2.325v6.645h2.181v-7.262c0-2.407-1.543-3.538-3.538-3.538zM108.796 21.811c-1.913 0-3.045-1.461-3.045-3.23h8.064c0-3.744-1.666-6.11-5.061-6.11-3.168 0-5.163 2.139-5.163 5.554 0 3.291 1.995 5.554 5.266 5.554 2.695 0 4.258-1.522 4.793-3.518h-2.16c-.185.638-.905 1.749-2.695 1.749zm-.042-7.632c1.749 0 2.901 1.173 2.901 2.798h-5.904c0-1.625 1.255-2.798 3.003-2.798zM115.337 8.563v14.709h2.181V8.563h-2.181zM124.573 10.333V8.564a7.6 7.6 0 0 0-1.44-.144c-1.728 0-2.674.782-2.674 3.003v1.337h-1.502v1.769h1.502v8.743h2.181v-8.743h1.934V12.76h-1.934v-1.152c0-1.193.535-1.337 1.934-1.275z"/>
    </symbol>
    <symbol id="icon-Shopping-list1" viewBox="0 0 273 32">
      <path d="M12.3 29.58c-2.091 0-3.923-.367-5.498-1.1s-2.81-1.778-3.706-3.136c-.869-1.358-1.317-2.973-1.344-4.847h4.561c.027 1.52.557 2.81 1.588 3.869s2.484 1.588 4.358 1.588c1.656 0 2.946-.394 3.869-1.181.95-.815 1.425-1.846 1.425-3.095 0-1.005-.231-1.819-.692-2.444-.434-.625-1.045-1.14-1.833-1.548-.76-.407-1.643-.774-2.647-1.1s-2.063-.679-3.177-1.059c-2.199-.733-3.856-1.683-4.969-2.851-1.086-1.168-1.629-2.702-1.629-4.602-.027-1.602.339-3 1.1-4.195.787-1.195 1.873-2.118 3.258-2.769C8.376.431 10.019.092 11.892.092c1.846 0 3.462.339 4.847 1.018 1.412.679 2.511 1.629 3.299 2.851.787 1.195 1.195 2.593 1.222 4.195h-4.561c0-.733-.19-1.425-.57-2.077-.38-.679-.937-1.235-1.67-1.67s-1.629-.652-2.688-.652c-1.358-.027-2.484.312-3.38 1.018-.869.706-1.303 1.683-1.303 2.932 0 1.113.326 1.969.977 2.566s1.548 1.1 2.688 1.507c1.14.38 2.444.828 3.91 1.344 1.412.462 2.674 1.018 3.788 1.67s1.996 1.507 2.647 2.566c.679 1.059 1.018 2.403 1.018 4.032a7.832 7.832 0 0 1-1.1 4.032c-.733 1.222-1.833 2.226-3.299 3.014-1.466.76-3.272 1.14-5.417 1.14zm12.906-.489V.582h4.317V12.8H43.33V.582h4.317v28.509H43.33V16.343H29.523v12.748h-4.317zm39.764.489c-2.824 0-5.295-.625-7.412-1.873s-3.774-2.973-4.969-5.172c-1.195-2.226-1.792-4.792-1.792-7.697s.597-5.457 1.792-7.657c1.195-2.226 2.851-3.964 4.969-5.213S62.146.095 64.97.095s5.295.625 7.412 1.873 3.761 2.987 4.928 5.213c1.195 2.199 1.792 4.752 1.792 7.657s-.597 5.471-1.792 7.697c-1.167 2.199-2.81 3.923-4.928 5.172s-4.588 1.873-7.412 1.873zm0-3.869c1.955 0 3.652-.434 5.091-1.303 1.466-.869 2.607-2.118 3.421-3.747s1.222-3.57 1.222-5.824-.407-4.195-1.222-5.824-1.955-2.878-3.421-3.747c-1.439-.869-3.136-1.303-5.091-1.303s-3.665.434-5.132 1.303c-1.466.869-2.607 2.118-3.421 3.747-.788 1.629-1.181 3.57-1.181 5.824s.394 4.195 1.181 5.824c.815 1.629 1.955 2.878 3.421 3.747s3.177 1.303 5.132 1.303zm17.313 3.38V.582h9.978c2.226 0 4.073.38 5.539 1.14 1.466.733 2.552 1.751 3.258 3.055.733 1.276 1.1 2.729 1.1 4.358 0 1.548-.353 2.973-1.059 4.276-.679 1.276-1.751 2.294-3.217 3.055s-3.34 1.14-5.62 1.14h-5.661v11.485h-4.317zM86.6 14.063h5.457c2.036 0 3.489-.434 4.358-1.303.896-.896 1.344-2.104 1.344-3.625 0-1.575-.448-2.797-1.344-3.665-.869-.896-2.321-1.344-4.358-1.344H86.6v9.937zm18.196 15.028V.582h9.978c2.227 0 4.073.38 5.539 1.14 1.466.733 2.552 1.751 3.258 3.055.733 1.276 1.1 2.729 1.1 4.358 0 1.548-.353 2.973-1.059 4.276-.679 1.276-1.751 2.294-3.217 3.055s-3.34 1.14-5.62 1.14h-5.661v11.485h-4.317zm4.317-15.028h5.457c2.036 0 3.489-.434 4.358-1.303.896-.896 1.344-2.104 1.344-3.625 0-1.575-.448-2.797-1.344-3.665-.869-.896-2.321-1.344-4.358-1.344h-5.457v9.937zm18.196 15.028V.582h4.317v28.509h-4.317zm8.473 0V.582h4.317l14.295 21.463V.582h4.317v28.509h-4.317L140.099 7.628v21.463h-4.317zm39.468.489c-2.688 0-5.036-.611-7.046-1.833s-3.57-2.932-4.684-5.132c-1.113-2.199-1.67-4.765-1.67-7.697 0-2.905.57-5.471 1.711-7.697s2.756-3.964 4.847-5.213c2.118-1.276 4.616-1.914 7.494-1.914 3.258 0 5.973.787 8.145 2.362s3.584 3.747 4.236 6.516h-4.887c-.434-1.521-1.29-2.715-2.566-3.584s-2.919-1.303-4.928-1.303c-2.987 0-5.335.964-7.046 2.892s-2.566 4.589-2.566 7.983c0 3.394.842 6.041 2.525 7.942s3.923 2.851 6.72 2.851c2.824 0 4.942-.801 6.353-2.403 1.439-1.602 2.281-3.733 2.525-6.394h-7.738v-3.34h12.096v15.476h-3.951l-.367-4.195c-.95 1.493-2.145 2.647-3.584 3.462s-3.313 1.222-5.62 1.222zm25.764-.489V.582h4.317V25.67h12.951v3.421h-17.268zm20.285 0V.582h4.317v28.509h-4.317zm17.882.489c-2.091 0-3.923-.367-5.498-1.1s-2.81-1.778-3.706-3.136c-.869-1.358-1.317-2.973-1.344-4.847h4.561c.027 1.52.556 2.81 1.588 3.869s2.484 1.588 4.358 1.588c1.656 0 2.946-.394 3.869-1.181.95-.815 1.425-1.846 1.425-3.095 0-1.005-.231-1.819-.692-2.444-.434-.625-1.045-1.14-1.833-1.548-.76-.407-1.643-.774-2.647-1.1s-2.063-.679-3.177-1.059c-2.199-.733-3.855-1.683-4.969-2.851-1.086-1.168-1.629-2.702-1.629-4.602-.027-1.602.339-3 1.1-4.195.787-1.195 1.873-2.118 3.258-2.769C235.257.431 236.9.092 238.773.092c1.846 0 3.462.339 4.847 1.018 1.412.679 2.511 1.629 3.299 2.851.787 1.195 1.195 2.593 1.222 4.195h-4.561c0-.733-.19-1.425-.57-2.077-.38-.679-.937-1.235-1.67-1.67s-1.629-.652-2.688-.652c-1.358-.027-2.484.312-3.38 1.018-.869.706-1.303 1.683-1.303 2.932 0 1.113.326 1.969.977 2.566s1.548 1.1 2.688 1.507c1.14.38 2.444.828 3.91 1.344 1.412.462 2.674 1.018 3.788 1.67s1.996 1.507 2.647 2.566c.679 1.059 1.018 2.403 1.018 4.032a7.832 7.832 0 0 1-1.1 4.032c-.733 1.222-1.833 2.226-3.299 3.014-1.466.76-3.272 1.14-5.417 1.14zm19.068-.489V4.084h-8.431V.581h21.137v3.503h-8.39v25.007h-4.317z"/>
    </symbol>
    <symbol id="icon-uil_cart1" viewBox="0 0 32 32">
      <path d="M25.333 9.333h-4V8a5.332 5.332 0 1 0-10.666 0v1.333h-4a1.335 1.335 0 0 0-1.334 1.334v14.667a4.003 4.003 0 0 0 4 4h13.333a4.003 4.003 0 0 0 4-4V10.667a1.335 1.335 0 0 0-1.334-1.334zM13.333 8a2.668 2.668 0 0 1 5.334 0v1.333h-5.333V8zM24 25.333a1.333 1.333 0 0 1-1.333 1.334H9.334A1.335 1.335 0 0 1 8 25.333V12h2.667v1.333a1.333 1.333 0 1 0 2.667 0V12h5.333v1.333a1.335 1.335 0 0 0 2.277.943c.25-.251.391-.589.391-.943V12h2.667v13.333z"/>
    </symbol>
    <symbol id="icon-Group-2" viewBox="0 0 20 32">
      <path fill="#fff" d="M9.005 30.888a8.64 8.64 0 0 1-3.414-5.351H0V2.42c2.991 1.443 5.153 4.599 5.388 7.876l.846 6.493-.407-.045c-.893 0-1.676.812-1.676 1.608 0 .752.595 1.383 1.378 1.548l1.018.226c1.676-3.051 2.631-6.042 2.631-8.973 0-2.645-.36-5.291-.423-7.996 0-1.202.486-2.3 1.253-3.156.783.857 1.253 1.954 1.253 3.156 0 2.705-.423 5.351-.423 7.996 0 2.931.955 5.922 2.631 8.973l1.018-.226c.783-.165 1.378-.812 1.378-1.548 0-.812-.783-1.608-1.676-1.608l-.423.06.846-6.493c.423-3.277 2.396-6.448 5.388-7.876v23.117h-5.576c-.423 2.179-1.613 4.148-3.414 5.351-.423.286-.783.631-1.018 1.097-.219-.466-.579-.812-.987-1.112zM2.647 17.556c.235-.857.893-1.608 1.738-2.074l-.658-5.351a8.288 8.288 0 0 0-2.036-4.374v11.784h.955v.015zm2.819 6.373c0-.812.125-1.548.298-2.3l-.783-.18c-1.143-.346-2.036-1.203-2.334-2.3h-.955v4.78h3.774zm3.712 0c0-.977-.783-1.834-1.801-1.954-.172.631-.298 1.263-.298 1.954h2.099zm0 1.623H7.314c.298 1.263.955 2.42 1.864 3.397v-3.397zm2.631-5.005c-.72-1.262-1.378-2.585-1.801-3.968-.423 1.383-1.081 2.706-1.801 3.968.72.165 1.316.631 1.801 1.157.486-.526 1.081-.992 1.801-1.157zm1.143 3.382c0-.691-.125-1.323-.297-1.954-1.018.12-1.801.977-1.801 1.954h2.099zm-.235 1.623h-1.864v3.397c.908-.992 1.566-2.134 1.864-3.397zm5.623-1.623v-4.78h-.955c-.298 1.097-1.206 1.954-2.334 2.3l-.783.18c.172.752.298 1.488.298 2.3h3.774zm0-6.373V5.757c-1.081 1.202-1.864 2.706-2.036 4.374l-.658 5.351c.846.466 1.504 1.203 1.739 2.074h.955z" style="fill:var(--color5, #fff)"/>
    </symbol>
    <symbol id="icon-slider-down" viewBox="0 0 32 32">
      <path fill="#fff" d="M16 32C7.163 32 0 24.837 0 16S7.163 0 16 0s16 7.163 16 16-7.163 16-16 16z" style="fill:var(--color5, #fff)"/>
      <path fill="#4f2ee8" d="M15.452 17.081a.777.777 0 0 0 .845.169.777.777 0 0 0 .251-.169l3.535-3.543a.777.777 0 0 1 .845-.169.777.777 0 0 1 .475.713c0 .204-.081.4-.224.544l-3.543 3.543a2.314 2.314 0 0 1-3.273 0l-3.543-3.543a.771.771 0 1 1 1.096-1.088l3.535 3.543z" style="fill:var(--color1, #4f2ee8)"/>
    </symbol>
    <symbol id="icon-slider-up" viewBox="0 0 32 32">
      <path fill="#fff" d="M16 0C7.163 0 0 7.163 0 16s7.163 16 16 16 16-7.163 16-16S24.837 0 16 0z" style="fill:var(--color5, #fff)"/>
      <path fill="#4f2ee8" d="M15.452 14.919a.777.777 0 0 1 .845-.169.777.777 0 0 1 .251.169l3.535 3.543a.777.777 0 0 0 .845.169.777.777 0 0 0 .475-.713c0-.204-.081-.4-.224-.544l-3.543-3.543a2.314 2.314 0 0 0-3.273 0l-3.543 3.543a.771.771 0 1 0 1.096 1.088l3.535-3.543z" style="fill:var(--color1, #4f2ee8)"/>
    </symbol>
    <symbol id="icon-Group-21" viewBox="0 0 20 32">
      <path d="M9.005 30.888a8.64 8.64 0 0 1-3.414-5.351H0V2.42c2.991 1.443 5.153 4.599 5.388 7.876l.846 6.493-.407-.045c-.893 0-1.676.812-1.676 1.608 0 .752.595 1.383 1.378 1.548l1.018.226c1.676-3.051 2.631-6.042 2.631-8.973 0-2.645-.36-5.291-.423-7.996 0-1.202.486-2.3 1.253-3.156.783.857 1.253 1.954 1.253 3.156 0 2.705-.423 5.351-.423 7.996 0 2.931.955 5.922 2.631 8.973l1.018-.226c.783-.165 1.378-.812 1.378-1.548 0-.812-.783-1.608-1.676-1.608l-.423.06.846-6.493c.423-3.277 2.396-6.448 5.388-7.876v23.117h-5.576c-.423 2.179-1.613 4.148-3.414 5.351-.423.286-.783.631-1.018 1.097-.219-.466-.579-.812-.987-1.112zM2.647 17.556c.235-.857.893-1.608 1.738-2.074l-.658-5.351a8.288 8.288 0 0 0-2.036-4.374v11.784h.955v.015zm2.819 6.373c0-.812.125-1.548.298-2.3l-.783-.18c-1.143-.346-2.036-1.203-2.334-2.3h-.955v4.78h3.774zm3.712 0c0-.977-.783-1.834-1.801-1.954-.172.631-.298 1.263-.298 1.954h2.099zm0 1.623H7.314c.298 1.263.955 2.42 1.864 3.397v-3.397zm2.631-5.005c-.72-1.262-1.378-2.585-1.801-3.968-.423 1.383-1.081 2.706-1.801 3.968.72.165 1.316.631 1.801 1.157.486-.526 1.081-.992 1.801-1.157zm1.143 3.382c0-.691-.125-1.323-.297-1.954-1.018.12-1.801.977-1.801 1.954h2.099zm-.235 1.623h-1.864v3.397c.908-.992 1.566-2.134 1.864-3.397zm5.623-1.623v-4.78h-.955c-.298 1.097-1.206 1.954-2.334 2.3l-.783.18c.172.752.298 1.488.298 2.3h3.774zm0-6.373V5.757c-1.081 1.202-1.864 2.706-2.036 4.374l-.658 5.351c.846.466 1.504 1.203 1.739 2.074h.955z"/>
    </symbol>
    <symbol id="icon-slider-down1" viewBox="0 0 32 32">
      <path d="M16 32C7.163 32 0 24.837 0 16S7.163 0 16 0s16 7.163 16 16-7.163 16-16 16z"/>
      <path d="M15.452 17.081a.777.777 0 0 0 .845.169.777.777 0 0 0 .251-.169l3.535-3.543a.777.777 0 0 1 .845-.169.777.777 0 0 1 .475.713c0 .204-.081.4-.224.544l-3.543 3.543a2.314 2.314 0 0 1-3.273 0l-3.543-3.543a.771.771 0 1 1 1.096-1.088l3.535 3.543z"/>
    </symbol>
    <symbol id="icon-slider-up1" viewBox="0 0 32 32">
      <path d="M16 0C7.163 0 0 7.163 0 16s7.163 16 16 16 16-7.163 16-16S24.837 0 16 0z"/>
      <path d="M15.452 14.919a.777.777 0 0 1 .845-.169.777.777 0 0 1 .251.169l3.535 3.543a.777.777 0 0 0 .845.169.777.777 0 0 0 .475-.713c0-.204-.081-.4-.224-.544l-3.543-3.543a2.314 2.314 0 0 0-3.273 0l-3.543 3.543a.771.771 0 1 0 1.096 1.088l3.535-3.543z"/>
    </symbol>
    <symbol id="icon-align-left1" viewBox="0 0 32 32">
      <path stroke-linecap="round" stroke-linejoin="round" stroke-width="2.286" d="M22.667 13.333H4M28 8H4M28 18.667H4M22.667 24H4"/>
    </symbol>
    <symbol id="icon-align-left2" viewBox="0 0 32 32">
      <path fill="none" stroke="#4f2ee8" stroke-linecap="round" stroke-linejoin="round" stroke-width="2.286" d="M22.667 13.333H4M28 8H4M28 18.667H4M22.667 24H4" style="stroke:var(--color1, #4f2ee8)"/>
    </symbol>
    <symbol id="icon-arrow-narrow-right" viewBox="0 0 43 32">
      <path fill="none" stroke="#eac645" stroke-linecap="round" stroke-linejoin="round" stroke-width="5.333" d="M3.556 16h35.555m0 0L25.778 2.667M39.111 16 25.778 29.333" style="stroke:var(--color6, #eac645)"/>
    </symbol>
    <symbol id="icon-dump" viewBox="0 0 32 32">
      <path fill="#4f2ee8" d="M29.217 13.217c0 7.3-5.918 13.217-13.217 13.217S2.783 20.516 2.783 13.217C2.783 5.917 8.701 0 16 0s13.217 5.918 13.217 13.217z" style="fill:var(--color1, #4f2ee8)"/>
      <path fill="none" stroke="#fff" stroke-linecap="round" stroke-linejoin="round" stroke-width="1.391" d="M14.087 7.478h3.826m-7.652 1.913h11.478m-1.275 0-.447 6.708c-.067 1.006-.101 1.51-.318 1.891-.191.336-.48.606-.828.775-.395.192-.899.192-1.908.192h-1.925c-1.009 0-1.513 0-1.908-.192a1.913 1.913 0 0 1-.828-.775c-.217-.382-.251-.885-.318-1.891l-.447-6.708m3.188 2.87v3.188m2.55-3.188v3.188" style="stroke:var(--color5, #fff)"/>
    </symbol>
    <symbol id="icon-Ellipse" viewBox="0 0 32 32">
      <path fill="#4f2ee8" d="M32 16c0 8.837-7.163 16-16 16S0 24.837 0 16 7.163 0 16 0s16 7.163 16 16z" style="fill:var(--color1, #4f2ee8)"/>
    </symbol>
    <symbol id="icon-fi-rr-angle-small-left-1" viewBox="0 0 18 32">
      <path fill="#fff" d="M6.208 17.488a2.082 2.082 0 0 1-.459-2.294c.106-.256.262-.487.459-.682l9.617-9.596a2.108 2.108 0 0 0 .62-1.488 2.104 2.104 0 0 0-.62-1.488 2.097 2.097 0 0 0-2.954 0l-9.617 9.617a6.286 6.286 0 0 0 0 8.884l9.617 9.617a2.099 2.099 0 0 0 3.574-1.487 2.104 2.104 0 0 0-.62-1.488l-9.617-9.596z" style="fill:var(--color5, #fff)"/>
    </symbol>
    <symbol id="icon-fi-rr-angle-small-left2" viewBox="0 0 18 32">
      <path fill="#b4afaf" d="M6.208 17.488a2.082 2.082 0 0 1-.459-2.294c.106-.256.262-.487.459-.682l9.617-9.596a2.108 2.108 0 0 0 .62-1.488 2.104 2.104 0 0 0-.62-1.488 2.097 2.097 0 0 0-2.954 0l-9.617 9.617a6.286 6.286 0 0 0 0 8.884l9.617 9.617a2.099 2.099 0 0 0 3.574-1.487 2.104 2.104 0 0 0-.62-1.488l-9.617-9.596z" style="fill:var(--color7, #b4afaf)"/>
    </symbol>
    <symbol id="icon-fi-rr-angle-small-right-1" viewBox="0 0 18 32">
      <path d="M12.078 17.488a2.082 2.082 0 0 0 .459-2.294 2.077 2.077 0 0 0-.459-.682L2.461 4.916a2.108 2.108 0 0 1-.62-1.488 2.104 2.104 0 0 1 .62-1.488 2.097 2.097 0 0 1 2.954 0l9.617 9.617a6.286 6.286 0 0 1 0 8.884l-9.617 9.617a2.099 2.099 0 0 1-3.574-1.487 2.104 2.104 0 0 1 .62-1.488l9.617-9.596z"/>
    </symbol>
    <symbol id="icon-fi-rr-angle-small-right2" viewBox="0 0 18 32">
      <path d="M12.078 17.488a2.082 2.082 0 0 0 .459-2.294 2.077 2.077 0 0 0-.459-.682L2.461 4.916a2.108 2.108 0 0 1-.62-1.488 2.104 2.104 0 0 1 .62-1.488 2.097 2.097 0 0 1 2.954 0l9.617 9.617a6.286 6.286 0 0 1 0 8.884l-9.617 9.617a2.099 2.099 0 0 1-3.574-1.487 2.104 2.104 0 0 1 .62-1.488l9.617-9.596z"/>
    </symbol>
    <symbol id="icon-Hover" viewBox="0 0 76 32">
      <path fill="#9a9a9a" d="M6.301 18.909V.582H8.5v8.09h9.504V.582h2.199v18.327h-2.199v-8.431H8.5v8.431H6.301zm22.509.314c-1.222 0-2.321-.279-3.299-.838s-1.754-1.344-2.33-2.356c-.559-1.03-.838-2.234-.838-3.613s.288-2.575.864-3.587c.576-1.03 1.353-1.824 2.33-2.383.995-.559 2.103-.838 3.325-.838s2.321.279 3.299.838c.977.559 1.745 1.353 2.304 2.383.576 1.012.864 2.208.864 3.587s-.288 2.583-.864 3.613a6.11 6.11 0 0 1-2.356 2.356c-.977.559-2.077.838-3.299.838zm0-1.885c.751 0 1.449-.183 2.095-.55s1.169-.916 1.571-1.649c.401-.733.602-1.641.602-2.723s-.201-1.99-.602-2.723c-.384-.733-.899-1.283-1.545-1.649s-1.335-.55-2.068-.55c-.751 0-1.449.183-2.095.55s-1.169.916-1.571 1.649c-.401.733-.602 1.641-.602 2.723s.201 1.99.602 2.723c.401.733.916 1.283 1.545 1.649.646.367 1.335.55 2.068.55zm11.609 1.571L35.497 5.923h2.304l3.901 10.865 3.927-10.865h2.252l-4.922 12.986h-2.54zm14.036.314c-1.239 0-2.339-.279-3.299-.838a6.232 6.232 0 0 1-2.278-2.383c-.541-1.012-.812-2.208-.812-3.587 0-1.361.271-2.548.812-3.561.541-1.03 1.292-1.824 2.252-2.383.977-.576 2.103-.864 3.377-.864 1.257 0 2.339.288 3.247.864.925.559 1.632 1.3 2.121 2.225s.733 1.92.733 2.985c0 .192-.009.384-.026.576v.655H50.24c.052.995.279 1.824.681 2.487.419.646.934 1.135 1.545 1.466a4.2 4.2 0 0 0 1.99.497c.908 0 1.667-.209 2.278-.628s1.056-.986 1.335-1.702h2.173a5.902 5.902 0 0 1-2.016 3.011c-.977.785-2.234 1.178-3.77 1.178zm0-11.755a4.405 4.405 0 0 0-2.801.969c-.803.628-1.265 1.553-1.388 2.775h8.169c-.052-1.169-.454-2.086-1.204-2.749s-1.676-.995-2.775-.995zm8.02 11.441V5.923h1.99l.183 2.487c.401-.855 1.012-1.536 1.833-2.042s1.833-.759 3.037-.759v2.304h-.602c-.768 0-1.475.14-2.121.419-.646.262-1.161.716-1.545 1.361s-.576 1.536-.576 2.671v6.545h-2.199z" style="fill:var(--color8, #9a9a9a)"/>
    </symbol>
    <symbol id="icon-lock" viewBox="0 0 32 32">
      <path stroke-linecap="round" stroke-linejoin="round" stroke-width="2.286" d="M22.667 14.667v-4a6.667 6.667 0 0 0-13.334 0v4M10.4 28h11.2c2.24 0 3.36 0 4.216-.436a3.991 3.991 0 0 0 1.748-1.748C28 24.96 28 23.84 28 21.6v-.533c0-2.24 0-3.36-.436-4.216a3.991 3.991 0 0 0-1.748-1.748c-.856-.436-1.976-.436-4.216-.436H10.4c-2.24 0-3.36 0-4.216.436a3.996 3.996 0 0 0-1.748 1.748C4 17.707 4 18.827 4 21.067v.533c0 2.24 0 3.36.436 4.216a3.991 3.991 0 0 0 1.748 1.748C7.04 28 8.16 28 10.4 28z"/>
    </symbol>
    <symbol id="icon-logo" viewBox="0 0 32 32">
      <path fill="#f6f6f6" d="m0 0 16.343 16.171L32 32V0H0z" style="fill:var(--color2, #f6f6f6)"/>
      <path fill="#f6f6f6" d="M4.457 4.229 16.4 16.058l11.257 11.486h-23.2V4.23z" style="fill:var(--color2, #f6f6f6)"/>
      <path fill="#4f2ee8" d="M27.733 27.618 15.79 15.789 4.533 4.303h23.2v23.314z" style="fill:var(--color1, #4f2ee8)"/>
      <path fill="#4f2ee8" d="m9.257 9.029 13.6 13.6h-13.6v-13.6z" style="fill:var(--color1, #4f2ee8)"/>
      <path fill="#f6f6f6" d="m9.257 9.029 13.6 13.6v-13.6h-13.6z" style="fill:var(--color2, #f6f6f6)"/>
    </symbol>
    <symbol id="icon-mail" viewBox="0 0 33 32">
      <path stroke-linecap="round" stroke-linejoin="round" stroke-width="1.939" d="m27.232 20.364-7.515-6.788m-6.465 0-7.515 6.788M5.172 7.919l9.237 6.466c.748.524 1.122.785 1.529.887.359.09.735.09 1.095 0 .407-.101.781-.363 1.529-.887l9.237-6.466M10.602 22.626h11.766c1.901 0 2.851 0 3.577-.37a3.39 3.39 0 0 0 1.483-1.483c.37-.726.37-1.676.37-3.577v-7.24c0-1.901 0-2.851-.37-3.577a3.39 3.39 0 0 0-1.483-1.483c-.726-.37-1.676-.37-3.577-.37H10.602c-1.901 0-2.851 0-3.577.37a3.39 3.39 0 0 0-1.483 1.483c-.37.726-.37 1.676-.37 3.577v7.24c0 1.901 0 2.851.37 3.577a3.39 3.39 0 0 0 1.483 1.483c.726.37 1.676.37 3.577.37z"/>
    </symbol>
    <symbol id="icon-Switcher2" viewBox="0 0 50 32">
      <path d="M2.37 14.222C2.37 7.676 7.676 2.37 14.222 2.37h23.704c6.546 0 11.852 5.306 11.852 11.852s-5.306 11.852-11.852 11.852H14.222c-6.546 0-11.852-5.306-11.852-11.852z"/>
      <path d="M14.222 24.889c5.891 0 10.667-4.776 10.667-10.667S20.113 3.555 14.222 3.555 3.555 8.331 3.555 14.222s4.776 10.667 10.667 10.667z"/>
    </symbol>
    <symbol id="icon-Switcher3" viewBox="0 0 52 32">
      <path d="M0 14.222C0 7.676 5.306 2.37 11.852 2.37h23.704c6.546 0 11.852 5.306 11.852 11.852s-5.306 11.852-11.852 11.852H11.852C5.306 26.074 0 20.768 0 14.222z"/>
      <path d="M35.556 24.889c5.891 0 10.667-4.776 10.667-10.667S41.447 3.555 35.556 3.555 24.889 8.331 24.889 14.222s4.776 10.667 10.667 10.667z"/>
    </symbol>
    <symbol id="icon-trash" viewBox="0 0 32 32">
      <path fill="none" stroke="#fff" stroke-linecap="round" stroke-linejoin="round" stroke-width="2.286" d="M11.429 2.286h9.143M2.286 6.857h27.429m-3.048 0-1.069 16.029c-.16 2.405-.24 3.607-.76 4.519a4.567 4.567 0 0 1-1.979 1.851c-.944.458-2.149.458-4.56.458h-4.6c-2.41 0-3.615 0-4.56-.458a4.57 4.57 0 0 1-1.978-1.851c-.519-.912-.6-2.114-.76-4.519L5.332 6.857m7.62 6.857v7.619m6.096-7.619v7.619" style="stroke:var(--color5, #fff)"/>
    </symbol>
    <symbol id="icon-user" viewBox="0 0 32 32">
      <path fill="#f6f6f6" d="M32 16c0 8.837-7.163 16-16 16S0 24.837 0 16 7.163 0 16 0s16 7.163 16 16z" style="fill:var(--color2, #f6f6f6)"/>
      <path fill="#4f2ee8" d="M10.523 22.847a5.477 5.477 0 1 1 10.954 0H10.522zM16 16.685c-2.27 0-4.108-1.838-4.108-4.108S13.73 8.469 16 8.469c2.27 0 4.108 1.838 4.108 4.108S18.27 16.685 16 16.685z" style="fill:var(--color1, #4f2ee8)"/>
    </symbol>
    <symbol id="icon-x-close" viewBox="0 0 32 32">
      <path stroke-linecap="round" stroke-linejoin="round" stroke-width="5.333" d="M28.444 3.556 3.555 28.445m.001-24.889 24.889 24.889"/>
    </symbol>
    <symbol id="icon-x-close1" viewBox="0 0 32 32">
      <path stroke-linecap="round" stroke-linejoin="round" stroke-width="3.429" d="M24 8 8 24M8 8l16 16"/>
    </symbol>
    <symbol id="icon-x-close2" viewBox="0 0 32 32">
      <path fill="none" stroke="#4f2ee8" stroke-linecap="round" stroke-linejoin="round" stroke-width="3.429" d="M24 8 8 24M8 8l16 16" style="stroke:var(--color1, #4f2ee8)"/>
    </symbol>
    <symbol id="icon-x-close3" viewBox="0 0 32 32">
      <path fill="none" stroke="#fff" stroke-linecap="round" stroke-linejoin="round" stroke-width="5.333" d="M28.444 3.556 3.555 28.445m.001-24.889 24.889 24.889" style="stroke:var(--color5, #fff)"/>
    </symbol>
    <symbol id="icon-align-left11" viewBox="0 0 32 32">
      <path stroke-linecap="round" stroke-linejoin="round" stroke-width="2.286" d="M22.667 13.333H4M28 8H4M28 18.667H4M22.667 24H4"/>
    </symbol>
    <symbol id="icon-align-left21" viewBox="0 0 32 32">
      <path stroke-linecap="round" stroke-linejoin="round" stroke-width="2.286" d="M22.667 13.333H4M28 8H4M28 18.667H4M22.667 24H4"/>
    </symbol>
    <symbol id="icon-arrow-narrow-right1" viewBox="0 0 43 32">
      <path stroke-linecap="round" stroke-linejoin="round" stroke-width="5.333" d="M3.556 16h35.555m0 0L25.778 2.667M39.111 16 25.778 29.333"/>
    </symbol>
    <symbol id="icon-dump1" viewBox="0 0 32 32">
      <path d="M29.217 13.217c0 7.3-5.918 13.217-13.217 13.217S2.783 20.516 2.783 13.217C2.783 5.917 8.701 0 16 0s13.217 5.918 13.217 13.217z"/>
      <path stroke-linecap="round" stroke-linejoin="round" stroke-width="1.391" d="M14.087 7.478h3.826m-7.652 1.913h11.478m-1.275 0-.447 6.708c-.067 1.006-.101 1.51-.318 1.891-.191.336-.48.606-.828.775-.395.192-.899.192-1.908.192h-1.925c-1.009 0-1.513 0-1.908-.192a1.913 1.913 0 0 1-.828-.775c-.217-.382-.251-.885-.318-1.891l-.447-6.708m3.188 2.87v3.188m2.55-3.188v3.188"/>
    </symbol>
    <symbol id="icon-Ellipse1" viewBox="0 0 32 32">
      <path d="M32 16c0 8.837-7.163 16-16 16S0 24.837 0 16 7.163 0 16 0s16 7.163 16 16z"/>
    </symbol>
    <symbol id="icon-fi-rr-angle-small-left1" viewBox="0 0 18 32">
      <path d="M6.208 17.488a2.082 2.082 0 0 1-.459-2.294c.106-.256.262-.487.459-.682l9.617-9.596a2.108 2.108 0 0 0 .62-1.488 2.104 2.104 0 0 0-.62-1.488 2.097 2.097 0 0 0-2.954 0l-9.617 9.617a6.286 6.286 0 0 0 0 8.884l9.617 9.617a2.099 2.099 0 0 0 3.574-1.487 2.104 2.104 0 0 0-.62-1.488l-9.617-9.596z"/>
    </symbol>
    <symbol id="icon-fi-rr-angle-small-left21" viewBox="0 0 18 32">
      <path d="M6.208 17.488a2.082 2.082 0 0 1-.459-2.294c.106-.256.262-.487.459-.682l9.617-9.596a2.108 2.108 0 0 0 .62-1.488 2.104 2.104 0 0 0-.62-1.488 2.097 2.097 0 0 0-2.954 0l-9.617 9.617a6.286 6.286 0 0 0 0 8.884l9.617 9.617a2.099 2.099 0 0 0 3.574-1.487 2.104 2.104 0 0 0-.62-1.488l-9.617-9.596z"/>
    </symbol>
    <symbol id="icon-fi-rr-angle-small-right1" viewBox="0 0 18 32">
      <path d="M12.078 17.488a2.082 2.082 0 0 0 .459-2.294 2.077 2.077 0 0 0-.459-.682L2.461 4.916a2.108 2.108 0 0 1-.62-1.488 2.104 2.104 0 0 1 .62-1.488 2.097 2.097 0 0 1 2.954 0l9.617 9.617a6.286 6.286 0 0 1 0 8.884l-9.617 9.617a2.099 2.099 0 0 1-3.574-1.487 2.104 2.104 0 0 1 .62-1.488l9.617-9.596z"/>
    </symbol>
    <symbol id="icon-fi-rr-angle-small-right21" viewBox="0 0 18 32">
      <path d="M12.078 17.488a2.082 2.082 0 0 0 .459-2.294 2.077 2.077 0 0 0-.459-.682L2.461 4.916a2.108 2.108 0 0 1-.62-1.488 2.104 2.104 0 0 1 .62-1.488 2.097 2.097 0 0 1 2.954 0l9.617 9.617a6.286 6.286 0 0 1 0 8.884l-9.617 9.617a2.099 2.099 0 0 1-3.574-1.487 2.104 2.104 0 0 1 .62-1.488l9.617-9.596z"/>
    </symbol>
    <symbol id="icon-Hover1" viewBox="0 0 76 32">
      <path fill="#9a9a9a" d="M6.301 18.909V.582H8.5v8.09h9.504V.582h2.199v18.327h-2.199v-8.431H8.5v8.431H6.301zm22.509.314c-1.222 0-2.321-.279-3.299-.838s-1.754-1.344-2.33-2.356c-.559-1.03-.838-2.234-.838-3.613s.288-2.575.864-3.587c.576-1.03 1.353-1.824 2.33-2.383.995-.559 2.103-.838 3.325-.838s2.321.279 3.299.838c.977.559 1.745 1.353 2.304 2.383.576 1.012.864 2.208.864 3.587s-.288 2.583-.864 3.613a6.11 6.11 0 0 1-2.356 2.356c-.977.559-2.077.838-3.299.838zm0-1.885c.751 0 1.449-.183 2.095-.55s1.169-.916 1.571-1.649c.401-.733.602-1.641.602-2.723s-.201-1.99-.602-2.723c-.384-.733-.899-1.283-1.545-1.649s-1.335-.55-2.068-.55c-.751 0-1.449.183-2.095.55s-1.169.916-1.571 1.649c-.401.733-.602 1.641-.602 2.723s.201 1.99.602 2.723c.401.733.916 1.283 1.545 1.649.646.367 1.335.55 2.068.55zm11.609 1.571L35.497 5.923h2.304l3.901 10.865 3.927-10.865h2.252l-4.922 12.986h-2.54zm14.036.314c-1.239 0-2.339-.279-3.299-.838a6.232 6.232 0 0 1-2.278-2.383c-.541-1.012-.812-2.208-.812-3.587 0-1.361.271-2.548.812-3.561.541-1.03 1.292-1.824 2.252-2.383.977-.576 2.103-.864 3.377-.864 1.257 0 2.339.288 3.247.864.925.559 1.632 1.3 2.121 2.225s.733 1.92.733 2.985c0 .192-.009.384-.026.576v.655H50.24c.052.995.279 1.824.681 2.487.419.646.934 1.135 1.545 1.466a4.2 4.2 0 0 0 1.99.497c.908 0 1.667-.209 2.278-.628s1.056-.986 1.335-1.702h2.173a5.902 5.902 0 0 1-2.016 3.011c-.977.785-2.234 1.178-3.77 1.178zm0-11.755a4.405 4.405 0 0 0-2.801.969c-.803.628-1.265 1.553-1.388 2.775h8.169c-.052-1.169-.454-2.086-1.204-2.749s-1.676-.995-2.775-.995zm8.02 11.441V5.923h1.99l.183 2.487c.401-.855 1.012-1.536 1.833-2.042s1.833-.759 3.037-.759v2.304h-.602c-.768 0-1.475.14-2.121.419-.646.262-1.161.716-1.545 1.361s-.576 1.536-.576 2.671v6.545h-2.199z" style="fill:var(--color8, #9a9a9a)"/>
    </symbol>
    <symbol id="icon-lock1" viewBox="0 0 32 32">
      <path stroke-linecap="round" stroke-linejoin="round" stroke-width="2.286" d="M22.667 14.667v-4a6.667 6.667 0 0 0-13.334 0v4M10.4 28h11.2c2.24 0 3.36 0 4.216-.436a3.991 3.991 0 0 0 1.748-1.748C28 24.96 28 23.84 28 21.6v-.533c0-2.24 0-3.36-.436-4.216a3.991 3.991 0 0 0-1.748-1.748c-.856-.436-1.976-.436-4.216-.436H10.4c-2.24 0-3.36 0-4.216.436a3.996 3.996 0 0 0-1.748 1.748C4 17.707 4 18.827 4 21.067v.533c0 2.24 0 3.36.436 4.216a3.991 3.991 0 0 0 1.748 1.748C7.04 28 8.16 28 10.4 28z"/>
    </symbol>
    <symbol id="icon-logo1" viewBox="0 0 32 32">
      <path d="m0 0 16.343 16.171L32 32V0H0z"/>
      <path d="M4.457 4.229 16.4 16.058l11.257 11.486h-23.2V4.23z"/>
      <path d="M27.733 27.618 15.79 15.789 4.533 4.303h23.2v23.314z"/>
      <path d="m9.257 9.029 13.6 13.6h-13.6v-13.6z"/>
      <path d="m9.257 9.029 13.6 13.6v-13.6h-13.6z"/>
    </symbol>
    <symbol id="icon-mail1" viewBox="0 0 33 32">
      <path stroke-linecap="round" stroke-linejoin="round" stroke-width="1.939" d="m27.232 20.364-7.515-6.788m-6.465 0-7.515 6.788M5.172 7.919l9.237 6.466c.748.524 1.122.785 1.529.887.359.09.735.09 1.095 0 .407-.101.781-.363 1.529-.887l9.237-6.466M10.602 22.626h11.766c1.901 0 2.851 0 3.577-.37a3.39 3.39 0 0 0 1.483-1.483c.37-.726.37-1.676.37-3.577v-7.24c0-1.901 0-2.851-.37-3.577a3.39 3.39 0 0 0-1.483-1.483c-.726-.37-1.676-.37-3.577-.37H10.602c-1.901 0-2.851 0-3.577.37a3.39 3.39 0 0 0-1.483 1.483c-.37.726-.37 1.676-.37 3.577v7.24c0 1.901 0 2.851.37 3.577a3.39 3.39 0 0 0 1.483 1.483c.726.37 1.676.37 3.577.37z"/>
    </symbol>
    <symbol id="icon-Switcher21" viewBox="0 0 50 32">
      <path d="M2.37 14.222C2.37 7.676 7.676 2.37 14.222 2.37h23.704c6.546 0 11.852 5.306 11.852 11.852s-5.306 11.852-11.852 11.852H14.222c-6.546 0-11.852-5.306-11.852-11.852z"/>
      <path d="M14.222 24.889c5.891 0 10.667-4.776 10.667-10.667S20.113 3.555 14.222 3.555 3.555 8.331 3.555 14.222s4.776 10.667 10.667 10.667z"/>
    </symbol>
    <symbol id="icon-Switcher31" viewBox="0 0 52 32">
      <path d="M0 14.222C0 7.676 5.306 2.37 11.852 2.37h23.704c6.546 0 11.852 5.306 11.852 11.852s-5.306 11.852-11.852 11.852H11.852C5.306 26.074 0 20.768 0 14.222z"/>
      <path d="M35.556 24.889c5.891 0 10.667-4.776 10.667-10.667S41.447 3.555 35.556 3.555 24.889 8.331 24.889 14.222s4.776 10.667 10.667 10.667z"/>
    </symbol>
    <symbol id="icon-trash1" viewBox="0 0 32 32">
      <path stroke-linecap="round" stroke-linejoin="round" stroke-width="2.286" d="M11.429 2.286h9.143M2.286 6.857h27.429m-3.048 0-1.069 16.029c-.16 2.405-.24 3.607-.76 4.519a4.567 4.567 0 0 1-1.979 1.851c-.944.458-2.149.458-4.56.458h-4.6c-2.41 0-3.615 0-4.56-.458a4.57 4.57 0 0 1-1.978-1.851c-.519-.912-.6-2.114-.76-4.519L5.332 6.857m7.62 6.857v7.619m6.096-7.619v7.619"/>
    </symbol>
    <symbol id="icon-user1" viewBox="0 0 32 32">
      <path d="M32 16c0 8.837-7.163 16-16 16S0 24.837 0 16 7.163 0 16 0s16 7.163 16 16z"/>
      <path d="M10.523 22.847a5.477 5.477 0 1 1 10.954 0H10.522zM16 16.685c-2.27 0-4.108-1.838-4.108-4.108S13.73 8.469 16 8.469c2.27 0 4.108 1.838 4.108 4.108S18.27 16.685 16 16.685z"/>
    </symbol>
    <symbol id="icon-x-close4" viewBox="0 0 32 32">
      <path stroke-linecap="round" stroke-linejoin="round" stroke-width="5.333" d="M28.444 3.556 3.555 28.445m.001-24.889 24.889 24.889"/>
    </symbol>
    <symbol id="icon-x-close11" viewBox="0 0 32 32">
      <path stroke-linecap="round" stroke-linejoin="round" stroke-width="3.429" d="M24 8 8 24M8 8l16 16"/>
    </symbol>
    <symbol id="icon-x-close21" viewBox="0 0 32 32">
      <path stroke-linecap="round" stroke-linejoin="round" stroke-width="3.429" d="M24 8 8 24M8 8l16 16"/>
    </symbol>
    <symbol id="icon-x-close31" viewBox="0 0 32 32">
      <path stroke-linecap="round" stroke-linejoin="round" stroke-width="5.333" d="M28.444 3.556 3.555 28.445m.001-24.889 24.889 24.889"/>
    </symbol>
  </defs>
</svg>
