<svg xmlns="http://www.w3.org/2000/svg" aria-hidden="true" style="position:absolute;width:0;height:0;overflow:hidden">
  <defs>
    <symbol id="icon-NumberPage" viewBox="0 0 32 32">
      <path fill="none" stroke="#111" stroke-width=".727" d="M31.636 16c0 8.636-7.001 15.636-15.636 15.636S.364 24.635.364 16C.364 7.364 7.365.364 16 .364S31.636 7.365 31.636 16z" style="stroke:var(--color1, #111)"/>
      <path d="M12.495 22.633c-.291 0-.533-.092-.727-.276a.962.962 0 0 1-.276-.684c0-.271.092-.499.276-.684.194-.194.436-.291.727-.291s.528.097.713.291a.929.929 0 0 1 .276.684c0 .262-.092.49-.276.684a.965.965 0 0 1-.713.276zm3.153 0c-.291 0-.533-.092-.727-.276a.962.962 0 0 1-.276-.684c0-.271.092-.499.276-.684.194-.194.436-.291.727-.291s.528.097.713.291a.929.929 0 0 1 .276.684c0 .262-.092.49-.276.684a.965.965 0 0 1-.713.276zm3.153 0c-.291 0-.533-.092-.727-.276a.962.962 0 0 1-.276-.684c0-.271.092-.499.276-.684.194-.194.436-.291.727-.291s.528.097.713.291a.929.929 0 0 1 .276.684c0 .262-.092.49-.276.684a.965.965 0 0 1-.713.276z"/>
    </symbol>
    <symbol id="icon-NumberPage1" viewBox="0 0 32 32">
      <path fill="#111" stroke="#111" stroke-width=".727" d="M31.636 16c0 8.636-7.001 15.636-15.636 15.636S.364 24.635.364 16C.364 7.364 7.365.364 16 .364S31.636 7.365 31.636 16z" style="fill:var(--color1, #111);stroke:var(--color1, #111)"/>
      <path fill="#fff" d="M14.976 20.364v-7.252l-1.505.353v-1.283l2.212-.982h1.034v9.164h-1.741z" style="fill:var(--color2, #fff)"/>
    </symbol>
    <symbol id="icon-NumberPage2" viewBox="0 0 32 32">
      <path fill="none" stroke="#111" stroke-width=".727" d="M31.636 16c0 8.636-7.001 15.636-15.636 15.636S.364 24.635.364 16C.364 7.364 7.365.364 16 .364S31.636 7.365 31.636 16z" style="stroke:var(--color1, #111)"/>
      <path d="M13.031 20.364v-1.217c.559-.463 1.1-.921 1.623-1.375a16.373 16.373 0 0 0 1.414-1.348c.419-.445.751-.877.995-1.296.253-.428.38-.842.38-1.244 0-.375-.105-.707-.314-.995-.201-.288-.537-.432-1.008-.432-.48 0-.842.157-1.087.471s-.367.694-.367 1.139h-1.623c.017-.672.166-1.231.445-1.676.279-.454.65-.79 1.113-1.008a3.49 3.49 0 0 1 1.558-.34c.934 0 1.658.257 2.173.772.524.506.785 1.165.785 1.977 0 .506-.118.999-.353 1.479-.227.48-.528.943-.903 1.388s-.781.864-1.217 1.257c-.436.384-.86.742-1.27 1.073h3.967v1.375h-6.31z"/>
    </symbol>
    <symbol id="icon-slider1-left" viewBox="0 0 32 32">
      <path fill="#111" d="M32 16c0 8.837-7.163 16-16 16S0 24.837 0 16 7.163 0 16 0s16 7.163 16 16z" style="fill:var(--color1, #111)"/>
      <path fill="#b4afaf" d="M14.982 16.516a.732.732 0 0 1 0-1.034l3.338-3.331a.732.732 0 0 0 0-1.034.73.73 0 0 0-1.026 0l-3.338 3.338a2.18 2.18 0 0 0 0 3.084l3.338 3.338a.728.728 0 0 0 1.025-1.034l-3.338-3.331z" style="fill:var(--color3, #b4afaf)"/>
    </symbol>
    <symbol id="icon-slider1-right" viewBox="0 0 32 32">
      <path fill="#eac645" stroke="#000" stroke-width=".727" d="M31.636 16c0 8.636-7.001 15.636-15.636 15.636S.364 24.635.364 16C.364 7.364 7.365.364 16 .364S31.636 7.365 31.636 16z" style="fill:var(--color4, #eac645);stroke:var(--color5, #000)"/>
      <path d="M17.018 16.516a.732.732 0 0 0 0-1.034l-3.338-3.331a.732.732 0 0 1 0-1.034.73.73 0 0 1 1.026 0l3.338 3.338a2.18 2.18 0 0 1 0 3.084l-3.338 3.338a.728.728 0 0 1-1.025-1.034l3.338-3.331z" style="fill:var(--color5, #000)"/>
    </symbol>
    <symbol id="icon-slider2-left" viewBox="0 0 32 32">
      <path fill="#111" d="M32 16c0 8.837-7.163 16-16 16S0 24.837 0 16 7.163 0 16 0s16 7.163 16 16z" style="fill:var(--color1, #111)"/>
      <path fill="#b4afaf" d="M12.073 16.516a.732.732 0 0 1 0-1.034l3.338-3.331a.732.732 0 0 0 0-1.034.73.73 0 0 0-1.026 0l-3.338 3.338a2.18 2.18 0 0 0 0 3.084l3.338 3.338a.728.728 0 0 0 1.025-1.034l-3.338-3.331z" style="fill:var(--color3, #b4afaf)"/>
      <path fill="#b4afaf" d="M17.164 16.516a.732.732 0 0 1 0-1.034l3.338-3.331a.732.732 0 0 0 0-1.034.73.73 0 0 0-1.026 0l-3.338 3.338a2.18 2.18 0 0 0 0 3.084l3.338 3.338a.728.728 0 0 0 1.025-1.034l-3.338-3.331z" style="fill:var(--color3, #b4afaf)"/>
    </symbol>
    <symbol id="icon-slider2-right" viewBox="0 0 32 32">
      <path fill="#eac645" stroke="#000" stroke-width=".727" d="M31.636 16c0 8.636-7.001 15.636-15.636 15.636S.364 24.635.364 16C.364 7.364 7.365.364 16 .364S31.636 7.365 31.636 16z" style="fill:var(--color4, #eac645);stroke:var(--color5, #000)"/>
      <path d="M19.927 16.516a.732.732 0 0 0 0-1.034l-3.338-3.331a.732.732 0 0 1 0-1.034.725.725 0 0 1 1.026 0l3.338 3.338a2.18 2.18 0 0 1 0 3.084l-3.338 3.338a.728.728 0 0 1-1.025-1.034l3.338-3.331z" style="fill:var(--color5, #000)"/>
      <path d="M14.836 16.516a.732.732 0 0 0 0-1.034l-3.338-3.331a.732.732 0 0 1 0-1.034.725.725 0 0 1 1.026 0l3.338 3.338a2.18 2.18 0 0 1 0 3.084l-3.338 3.338a.728.728 0 0 1-1.025-1.034l3.338-3.331z" style="fill:var(--color5, #000)"/>
    </symbol>
    <symbol id="icon-NumberPage3" viewBox="0 0 32 32">
      <path stroke-width=".727" d="M31.636 16c0 8.636-7.001 15.636-15.636 15.636S.364 24.635.364 16C.364 7.364 7.365.364 16 .364S31.636 7.365 31.636 16z"/>
      <path d="M12.495 22.633c-.291 0-.533-.092-.727-.276a.962.962 0 0 1-.276-.684c0-.271.092-.499.276-.684.194-.194.436-.291.727-.291s.528.097.713.291a.929.929 0 0 1 .276.684c0 .262-.092.49-.276.684a.965.965 0 0 1-.713.276zm3.153 0c-.291 0-.533-.092-.727-.276a.962.962 0 0 1-.276-.684c0-.271.092-.499.276-.684.194-.194.436-.291.727-.291s.528.097.713.291a.929.929 0 0 1 .276.684c0 .262-.092.49-.276.684a.965.965 0 0 1-.713.276zm3.153 0c-.291 0-.533-.092-.727-.276a.962.962 0 0 1-.276-.684c0-.271.092-.499.276-.684.194-.194.436-.291.727-.291s.528.097.713.291a.929.929 0 0 1 .276.684c0 .262-.092.49-.276.684a.965.965 0 0 1-.713.276z"/>
    </symbol>
    <symbol id="icon-NumberPage11" viewBox="0 0 32 32">
      <path stroke-width=".727" d="M31.636 16c0 8.636-7.001 15.636-15.636 15.636S.364 24.635.364 16C.364 7.364 7.365.364 16 .364S31.636 7.365 31.636 16z"/>
      <path d="M14.976 20.364v-7.252l-1.505.353v-1.283l2.212-.982h1.034v9.164h-1.741z"/>
    </symbol>
    <symbol id="icon-NumberPage21" viewBox="0 0 32 32">
      <path stroke-width=".727" d="M31.636 16c0 8.636-7.001 15.636-15.636 15.636S.364 24.635.364 16C.364 7.364 7.365.364 16 .364S31.636 7.365 31.636 16z"/>
      <path d="M13.031 20.364v-1.217c.559-.463 1.1-.921 1.623-1.375a16.373 16.373 0 0 0 1.414-1.348c.419-.445.751-.877.995-1.296.253-.428.38-.842.38-1.244 0-.375-.105-.707-.314-.995-.201-.288-.537-.432-1.008-.432-.48 0-.842.157-1.087.471s-.367.694-.367 1.139h-1.623c.017-.672.166-1.231.445-1.676.279-.454.65-.79 1.113-1.008a3.49 3.49 0 0 1 1.558-.34c.934 0 1.658.257 2.173.772.524.506.785 1.165.785 1.977 0 .506-.118.999-.353 1.479-.227.48-.528.943-.903 1.388s-.781.864-1.217 1.257c-.436.384-.86.742-1.27 1.073h3.967v1.375h-6.31z"/>
    </symbol>
    <symbol id="icon-slider1-left1" viewBox="0 0 32 32">
      <path d="M32 16c0 8.837-7.163 16-16 16S0 24.837 0 16 7.163 0 16 0s16 7.163 16 16z"/>
      <path d="M14.982 16.516a.732.732 0 0 1 0-1.034l3.338-3.331a.732.732 0 0 0 0-1.034.73.73 0 0 0-1.026 0l-3.338 3.338a2.18 2.18 0 0 0 0 3.084l3.338 3.338a.728.728 0 0 0 1.025-1.034l-3.338-3.331z"/>
    </symbol>
    <symbol id="icon-slider1-right1" viewBox="0 0 32 32">
      <path stroke-width=".727" d="M31.636 16c0 8.636-7.001 15.636-15.636 15.636S.364 24.635.364 16C.364 7.364 7.365.364 16 .364S31.636 7.365 31.636 16z"/>
      <path d="M17.018 16.516a.732.732 0 0 0 0-1.034l-3.338-3.331a.732.732 0 0 1 0-1.034.73.73 0 0 1 1.026 0l3.338 3.338a2.18 2.18 0 0 1 0 3.084l-3.338 3.338a.728.728 0 0 1-1.025-1.034l3.338-3.331z"/>
    </symbol>
    <symbol id="icon-slider2-left1" viewBox="0 0 32 32">
      <path d="M32 16c0 8.837-7.163 16-16 16S0 24.837 0 16 7.163 0 16 0s16 7.163 16 16z"/>
      <path d="M12.073 16.516a.732.732 0 0 1 0-1.034l3.338-3.331a.732.732 0 0 0 0-1.034.73.73 0 0 0-1.026 0l-3.338 3.338a2.18 2.18 0 0 0 0 3.084l3.338 3.338a.728.728 0 0 0 1.025-1.034l-3.338-3.331z"/>
      <path d="M17.164 16.516a.732.732 0 0 1 0-1.034l3.338-3.331a.732.732 0 0 0 0-1.034.73.73 0 0 0-1.026 0l-3.338 3.338a2.18 2.18 0 0 0 0 3.084l3.338 3.338a.728.728 0 0 0 1.025-1.034l-3.338-3.331z"/>
    </symbol>
    <symbol id="icon-slider2-right1" viewBox="0 0 32 32">
      <path stroke-width=".727" d="M31.636 16c0 8.636-7.001 15.636-15.636 15.636S.364 24.635.364 16C.364 7.364 7.365.364 16 .364S31.636 7.365 31.636 16z"/>
      <path d="M19.927 16.516a.732.732 0 0 0 0-1.034l-3.338-3.331a.732.732 0 0 1 0-1.034.725.725 0 0 1 1.026 0l3.338 3.338a2.18 2.18 0 0 1 0 3.084l-3.338 3.338a.728.728 0 0 1-1.025-1.034l3.338-3.331z"/>
      <path d="M14.836 16.516a.732.732 0 0 0 0-1.034l-3.338-3.331a.732.732 0 0 1 0-1.034.725.725 0 0 1 1.026 0l3.338 3.338a2.18 2.18 0 0 1 0 3.084l-3.338 3.338a.728.728 0 0 1-1.025-1.034l3.338-3.331z"/>
    </symbol>
  </defs>
</svg>
